<?xml version="1.0" encoding="utf-8"?><svg xmlns="http://www.w3.org/2000/svg" xmlns:xlink="http://www.w3.org/1999/xlink"><symbol viewBox="0 0 489 361" id="arrow-white-next"><path d="M59.6 191.043c35.4-43.14 102.1-94.488 219.7-98.892V12.277c0-4.704 2.7-9.109 7-11.11 4.3-2.002 9.4-1.402 13 1.601L484.5 155.61c2.8 2.302 4.5 5.805 4.5 9.408 0 3.704-1.6 7.107-4.4 9.409L299.4 327.869c-3.7 3.003-8.7 3.704-13 1.602-4.3-2.002-7-6.306-7-11.111v-79.573c-76.8.3-194.2 6.005-256.5 116.007-2.2 3.904-6.3 6.206-10.7 6.206-1 0-2.1-.1-3.1-.4-5.4-1.402-9.1-6.306-9.1-11.811-.1-41.138 15.6-104.097 59.6-157.746zm232 23.221c3.3 0 6.4 1.301 8.7 3.603 2.3 2.303 3.6 5.405 3.6 8.708v65.761l153.5-127.218L303.8 38.301v65.761c0 6.706-5.4 12.211-12.1 12.311-176 1.702-241.6 109.101-260.7 184.571 75.8-86.58 189.3-86.68 260.6-86.68z"/></symbol><symbol viewBox="0 0 478.448 478.448" id="carousel-next"><path d="M131.659 0l-31.165 32.035 213.31 207.197-213.31 207.141 31.156 32.075 246.304-239.216z"/></symbol><symbol viewBox="0 0 370.814 370.814" id="carousel-prev"><path d="M292.92 24.848L268.781 0 77.895 185.401l190.886 185.413 24.139-24.853-165.282-160.56z"/></symbol><symbol viewBox="0 0 54.757 54.757" id="contacts-address"><path d="M27.557 12c-3.859 0-7 3.141-7 7s3.141 7 7 7 7-3.141 7-7-3.141-7-7-7zm0 12c-2.757 0-5-2.243-5-5s2.243-5 5-5 5 2.243 5 5-2.243 5-5 5z"/><path d="M40.94 5.617A19.052 19.052 0 0 0 27.38 0a19.05 19.05 0 0 0-13.56 5.617c-6.703 6.702-7.536 19.312-1.804 26.952L27.38 54.757 42.721 32.6c5.755-7.671 4.922-20.281-1.781-26.983zm.159 25.814L27.38 51.243 13.639 31.4C8.44 24.468 9.185 13.08 15.235 7.031 18.479 3.787 22.792 2 27.38 2s8.901 1.787 12.146 5.031c6.05 6.049 6.795 17.437 1.573 24.4z"/></symbol><symbol viewBox="0 0 205.996 205.996" id="contacts-email"><path d="M102.996 61.363c22.958 0 41.635 18.678 41.635 41.635a6 6 0 0 0 12 0c0-29.574-24.061-53.635-53.635-53.635S49.36 73.424 49.36 102.998s24.061 53.635 53.635 53.635c18.99 0 36.745-10.195 46.336-26.607a6 6 0 0 0-10.361-6.055c-7.448 12.745-21.233 20.662-35.976 20.662-22.958 0-41.635-18.678-41.635-41.635s18.679-41.635 41.637-41.635z"/><path d="M205.698 95.053c-3.76-50.059-44.326-90.782-94.359-94.727C81.095-2.059 51.51 8.817 30.163 30.165 8.815 51.513-2.061 81.1.324 111.341c3.931 49.847 44.483 90.399 94.329 94.329 2.747.217 5.484.323 8.214.323 27.329 0 53.553-10.753 72.962-30.161a6 6 0 0 0-8.485-8.486c-18.862 18.861-45.012 28.47-71.747 26.361-44.023-3.471-79.838-39.286-83.31-83.31-2.108-26.735 7.5-52.887 26.361-71.747 18.861-18.861 45.008-28.473 71.747-26.361 44.189 3.483 80.016 39.451 83.337 83.662a93.044 93.044 0 0 1-.397 18.086 19.122 19.122 0 0 1-10.208 14.713c-5.095 2.633-10.819 2.623-15.706-.026a5.996 5.996 0 0 0-8.134 2.415 5.998 5.998 0 0 0 2.415 8.134c8.435 4.573 18.251 4.623 26.933.139a31.108 31.108 0 0 0 16.613-23.935c.812-6.719.963-13.59.45-20.424z"/></symbol><symbol viewBox="0 0 405.333 405.333" id="contacts-tel"><path d="M373.333 266.88c-25.003 0-49.493-3.904-72.725-11.584-11.328-3.904-24.171-.896-31.637 6.699l-46.016 34.752c-52.779-28.16-86.571-61.931-114.389-114.368l33.813-44.928c8.512-8.533 11.563-20.971 7.915-32.64C142.592 81.472 138.667 56.96 138.667 32c0-17.643-14.357-32-32-32H32C14.357 0 0 14.357 0 32c0 205.845 167.488 373.333 373.333 373.333 17.643 0 32-14.357 32-32V298.88c0-17.643-14.357-32-32-32zM384 373.333c0 5.888-4.8 10.667-10.667 10.667-194.091 0-352-157.909-352-352 0-5.888 4.8-10.667 10.667-10.667h74.667c5.867 0 10.667 4.779 10.667 10.667 0 27.243 4.267 53.995 12.629 79.36 1.237 3.989.235 8.107-3.669 12.16l-38.827 51.413a10.665 10.665 0 0 0-.981 11.264c31.637 62.144 70.059 100.587 132.651 132.651 3.605 1.877 8.021 1.493 11.285-.981l52.523-39.808a10.7 10.7 0 0 1 10.859-2.539c25.515 8.427 52.267 12.693 79.531 12.693 5.867 0 10.667 4.779 10.667 10.667v74.453z"/></symbol><symbol viewBox="0 0 139.4 44.7" id="dorohovdesign"><path d="M52.2 19.5V8.1H57c3.6 0 6.1 2.1 6.1 5.7 0 3.5-2.6 5.7-6.1 5.7h-4.8zm7.9-5.7c0-1.8-1.1-3.1-3.1-3.1h-1.9v6.2H57c2 0 3.1-1.4 3.1-3.1m4.1 0c0-3.4 2.6-5.9 6.1-5.9 3.5 0 6.1 2.4 6.1 5.9 0 3.5-2.6 5.9-6.1 5.9-3.5 0-6.1-2.4-6.1-5.9m9.2 0c0-1.9-1.2-3.3-3.1-3.3-1.9 0-3.1 1.4-3.1 3.3 0 1.8 1.2 3.3 3.1 3.3 1.9 0 3.1-1.4 3.1-3.3m11 5.7l-1.9-3.8H81v3.8h-2.9V8.1h5.7c2.5 0 3.9 1.7 3.9 3.8 0 2-1.2 3-2.3 3.4l2.3 4.2h-3.3zm.3-7.6c0-.8-.6-1.2-1.4-1.2H81v2.4h2.3c.8 0 1.4-.4 1.4-1.2m4.2 1.9c0-3.4 2.6-5.9 6.1-5.9 3.5 0 6.1 2.4 6.1 5.9 0 3.5-2.6 5.9-6.1 5.9-3.5 0-6.1-2.4-6.1-5.9m9.1 0c0-1.9-1.2-3.3-3.1-3.3-1.9 0-3.1 1.4-3.1 3.3 0 1.8 1.2 3.3 3.1 3.3 1.9 0 3.1-1.4 3.1-3.3m12.4 5.7v-4.6h-4.7v4.6h-3V8.1h3v4.3h4.7V8.1h2.9v11.4zm4.6-5.7c0-3.4 2.6-5.9 6.1-5.9 3.5 0 6.1 2.4 6.1 5.9 0 3.5-2.6 5.9-6.1 5.9-3.5 0-6.1-2.4-6.1-5.9m9.2 0c0-1.9-1.2-3.3-3.1-3.3-1.9 0-3.1 1.4-3.1 3.3 0 1.8 1.2 3.3 3.1 3.3 1.9 0 3.1-1.4 3.1-3.3m7.3 5.7l-4.3-11.4h3.3l2.8 8.2 2.8-8.2h3.3l-4.2 11.4zm-79.3 17V25.1H57c3.6 0 6.1 2.1 6.1 5.7 0 3.5-2.6 5.7-6.1 5.7h-4.8zm7.9-5.7c0-1.8-1.1-3.1-3.1-3.1h-1.9v6.2H57c2 0 3.1-1.4 3.1-3.1m4.7 5.7V25.1h8.3v2.6h-5.3v1.8H73V32h-5.2v1.9h5.3v2.6zm9.6-1.6l1.5-2.2c.8.8 2.1 1.5 3.6 1.5 1 0 1.6-.4 1.6-.9 0-1.5-6.4-.3-6.4-4.7 0-1.9 1.6-3.6 4.5-3.6 1.8 0 3.4.5 4.6 1.6l-1.6 2.1c-1-.8-2.2-1.2-3.3-1.2-.8 0-1.2.3-1.2.8 0 1.4 6.4.4 6.4 4.6 0 2.3-1.7 3.8-4.7 3.8-2.2 0-3.8-.7-5-1.8m11.5-9.8h2.9v11.3h-2.9zm4.7 5.7c0-3.6 2.8-5.9 6.1-5.9 2.5 0 4.1 1.3 4.8 2.8L99.1 29c-.4-.7-1.3-1.4-2.4-1.4-1.9 0-3.2 1.4-3.2 3.3s1.3 3.3 3.2 3.3c.8 0 1.7-.3 2.1-.7v-.9h-2.6V30h5.5v4.5c-1.2 1.3-2.9 2.2-5 2.2-3.4 0-6.1-2.3-6.1-5.9m20.9 5.7l-4.8-6.6v6.6h-2.9V25.1h3l4.6 6.3v-6.3h2.9v11.4zM17.7 0H0v44.7h17.8c15 0 24.6-8.8 24.6-22.4C42.4 8.7 32.7 0 17.7 0m-.4 35.7h-8V9.5h8c9.3 0 15.7 3.7 15.7 12.7.1 7.5-5.8 13.5-15.7 13.5"/><path d="M19.1 17H17v10.6h2c4 0 6.4-2.4 6.4-5.4 0-3.7-2.6-5.2-6.3-5.2"/></symbol><symbol viewBox="0 0 96.124 96.123" id="fb"><path d="M72.089.02L59.624 0C45.62 0 36.57 9.285 36.57 23.656v10.907H24.037a1.96 1.96 0 0 0-1.96 1.961v15.803a1.96 1.96 0 0 0 1.96 1.96H36.57v39.876a1.96 1.96 0 0 0 1.96 1.96h16.352a1.96 1.96 0 0 0 1.96-1.96V54.287h14.654a1.96 1.96 0 0 0 1.96-1.96l.006-15.803a1.963 1.963 0 0 0-1.961-1.961H56.842v-9.246c0-4.444 1.059-6.7 6.848-6.7l8.397-.003a1.96 1.96 0 0 0 1.959-1.96V1.98A1.96 1.96 0 0 0 72.089.02z"/></symbol><symbol viewBox="0 0 53 28.9" id="icon-360"><path d="M26.5 0C13.7 0 0 3.8 0 10.9c0 6.7 12.2 10.5 24.3 10.9l-4.5 4.5c-.6.6-.6 1.5 0 2.1.3.3.7.4 1.1.4s.8-.1 1.1-.4l7.1-7.1c.6-.6.6-1.5 0-2.1L22 12.1c-.6-.6-1.5-.6-2.1 0-.6.6-.6 1.5 0 2.1l4.5 4.5C11.9 18.3 3 14.4 3 10.9 3 7.2 13 3 26.5 3S50 7.2 50 10.9c0 1.9-2.8 4.1-7.3 5.6-.8.3-1.2 1.1-.9 1.9s1.1 1.2 1.9.9c6-2 9.4-5 9.4-8.4C53 3.8 39.3 0 26.5 0z"/></symbol><symbol viewBox="0 0 465 382" id="icon-add"><path d="M0 178.267L180.833 0v101.867C361.667 127.333 439.167 254.667 465 382c-64.583-89.133-155-129.88-284.167-129.88v104.413L0 178.267z"/></symbol><symbol viewBox="0 0 511.999 511.999" id="icon-birthdey"><path d="M467.666 364.065c10.701-4.29 18.333-15.249 18.333-28.065v-80c0-16.542-12.71-30-28.333-30H411v-69.663c0-5.314-2.065-10.143-5.415-13.771 7.046-8.323 12.219-22.488 2.724-45.202-6.66-15.93-18.248-30.582-24.564-37.897a9.999 9.999 0 0 0-15.138 0c-30.011 34.765-37.701 64.01-21.986 82.874-3.473 3.649-5.62 8.571-5.62 13.995v69.663H291v-99.664c0-5.314-2.065-10.144-5.415-13.771 7.046-8.324 12.22-22.488 2.724-45.203-6.66-15.93-18.248-30.581-24.563-37.897a9.999 9.999 0 0 0-15.138 0c-30.01 34.763-37.701 64.008-21.986 82.874-3.473 3.65-5.62 8.572-5.62 13.996v99.664h-50.001v-69.663c0-5.314-2.065-10.143-5.414-13.77 7.045-8.324 12.219-22.488 2.723-45.203-6.659-15.931-18.248-30.582-24.563-37.897a9.999 9.999 0 0 0-15.138 0c-30.011 34.764-37.7 64.009-21.986 82.874-3.473 3.65-5.62 8.572-5.62 13.996v69.663H54.332c-15.623 0-28.333 13.458-28.333 30v80c0 12.816 7.632 23.774 18.333 28.065l.001 91.938c0 3.505.576 6.87 1.624 9.999h-6.991c-5.522 0-10 4.477-10 10s4.478 10 10 10h434.067c5.522 0 10-4.477 10-10s-4.478-10-10-10h-6.991a31.444 31.444 0 0 0 1.624-9.999v-91.936zM376.134 81.989c12.03 16.333 23.613 38.532 13.216 48.697-3.504 3.426-8.178 5.313-13.162 5.316h-.128c-5.022-.03-9.631-1.89-12.978-5.237-11.521-11.52 2.349-34.53 13.052-48.776zM361 156.337c0-.163.173-.336.336-.336h14.604l.238.001.021-.001h14.466c.163 0 .336.173.336.336V226h-30v-69.663H361zM256.133 51.987c12.03 16.333 23.614 38.532 13.216 48.698-3.503 3.426-8.177 5.313-13.161 5.315h-.129c-5.021-.03-9.631-1.89-12.977-5.236-11.521-11.521 2.348-34.531 13.051-48.777zm14.866 74.349V226h-30v-99.664c0-.163.173-.336.336-.336h29.328c.163 0 .336.173.336.336zM136.133 81.988c12.03 16.332 23.614 38.532 13.216 48.697-3.503 3.426-8.179 5.313-13.163 5.316h-.128c-5.021-.03-9.63-1.89-12.977-5.237-11.52-11.52 2.349-34.53 13.052-48.776zm-15.135 74.349c0-.163.173-.336.336-.336h14.604l.238.001.021-.001h14.467c.163 0 .335.173.335.336V226h-30v-69.663h-.001zm326.666 216.004h-31.035c-5.522 0-10 4.477-10 10s4.478 10 10 10h31.035v63.66c0 5.417-3.813 9.994-8.325 9.999H72.658c-4.513-.005-8.325-4.582-8.325-9.999v-7.661h31.035c5.522 0 10-4.477 10-10s-4.478-10-10-10H64.333l-.001-64.274c10.702-4.29 18.334-15.249 18.334-28.065v-29.76c0-6.625 4.749-12.222 10.37-12.222 5.621 0 10.37 5.597 10.37 12.222v41.058c0 17.768 13.624 32.222 30.371 32.222 16.746 0 30.37-14.455 30.37-32.222v-41.058c0-6.625 4.749-12.222 10.37-12.222 5.622 0 10.371 5.597 10.371 12.222v2.557c0 17.767 13.624 32.222 30.37 32.222 16.746 0 30.37-14.455 30.37-32.222v-2.557c0-6.625 4.749-12.222 10.37-12.222 5.622 0 10.371 5.597 10.371 12.222v21.057c0 17.767 13.624 32.222 30.37 32.222 16.746 0 30.37-14.455 30.37-32.222v-21.057c0-6.625 4.749-12.222 10.37-12.222 5.622 0 10.371 5.597 10.371 12.222v2.557c0 17.767 13.624 32.222 30.37 32.222 16.746 0 30.37-14.455 30.37-32.222v-2.557c0-6.625 4.749-12.222 10.371-12.222 5.621 0 10.37 5.597 10.37 12.222v29.76c0 12.816 7.632 23.775 18.333 28.065v8.275zM465.999 336c0 5.42-3.816 10-8.333 10s-8.333-4.58-8.333-10v-29.76c0-17.768-13.624-32.222-30.37-32.222-16.747 0-30.371 14.455-30.371 32.222v2.557c0 6.625-4.749 12.222-10.37 12.222-5.621 0-10.37-5.597-10.37-12.222v-2.557c0-17.768-13.624-32.222-30.371-32.222-16.746 0-30.37 14.455-30.37 32.222v21.057c0 6.625-4.749 12.222-10.37 12.222-5.621 0-10.37-5.597-10.37-12.222V306.24c0-17.768-13.624-32.222-30.371-32.222-16.746 0-30.37 14.455-30.37 32.222v2.557c0 6.625-4.749 12.222-10.37 12.222-5.621 0-10.37-5.597-10.37-12.222v-2.557c0-17.768-13.624-32.222-30.371-32.222-16.746 0-30.37 14.455-30.37 32.222v41.058c0 6.625-4.749 12.222-10.37 12.222-5.622 0-10.371-5.597-10.371-12.222V306.24c0-17.768-13.624-32.222-30.37-32.222-16.746 0-30.37 14.455-30.37 32.222V336c0 5.42-3.816 10-8.334 10-4.517 0-8.333-4.58-8.333-10v-80c0-5.42 3.816-10 8.334-10h403.331c4.517 0 8.333 4.58 8.333 10v80zm36 130h-.235c-5.522 0-10 4.477-10 10s4.478 10 10 10h.235c5.523 0 10-4.477 10-10s-4.477-10-10-10zm-491.764 0H10c-5.523 0-10 4.477-10 10s4.477 10 10 10h.235c5.522 0 10-4.477 10-10s-4.477-10-10-10z"/><path d="M124.334 428.342h-.235c-5.522 0-10 4.477-10 10s4.478 10 10 10h.235c5.522 0 10-4.477 10-10s-4.478-10-10-10zM387.9 372.343h-.236c-5.522 0-10 4.477-10 10s4.478 10 10 10h.236c5.523 0 10-4.477 10-10s-4.477-10-10-10zm-133.096-4.998h-19c-5.522 0-10 4.477-10 10s4.478 10 10 10h19c5.522 0 10-4.477 10-10s-4.478-10-10-10zm-72 28.504h-13c-5.522 0-10 4.477-10 10s4.478 10 10 10h13c5.523 0 10-4.477 10-10s-4.478-10-10-10zm223 32.493h-23c-5.522 0-10 4.477-10 10s4.478 10 10 10h23c5.522 0 10-4.477 10-10s-4.478-10-10-10zm-72.5-41.993h-13c-5.522 0-10 4.477-10 10s4.478 10 10 10h13c5.522 0 10-4.477 10-10s-4.478-10-10-10zm-56 41.993h-13c-5.522 0-10 4.477-10 10s4.478 10 10 10h13c5.522 0 10-4.477 10-10s-4.478-10-10-10z"/></symbol><symbol viewBox="0 0 216.952 216.952" id="icon-calendar"><path d="M211.952 46.01h-18.44V33.565c0-8.662-7.048-15.71-15.711-15.71-8.662 0-15.71 7.048-15.71 15.71V46.01H54.86V33.565c0-8.662-7.048-15.71-15.71-15.71s-15.71 7.048-15.71 15.71V46.01H5a5 5 0 0 0-5 5v129.223c0 10.401 8.462 18.864 18.863 18.864h179.225c10.401 0 18.864-8.463 18.864-18.864V51.01a5 5 0 0 0-5-5zm-39.861-12.445a5.717 5.717 0 0 1 5.71-5.71 5.717 5.717 0 0 1 5.711 5.71v21.359a5.717 5.717 0 0 1-5.711 5.71 5.717 5.717 0 0 1-5.71-5.71V33.565zm-138.651 0c0-3.148 2.562-5.71 5.71-5.71s5.71 2.562 5.71 5.71v21.359c0 3.148-2.562 5.71-5.71 5.71s-5.71-2.562-5.71-5.71V33.565zm16.58 144.672H22.797v-15.215H50.02v15.215zm0-25.814H22.797v-15.216H50.02v15.216zm0-25.816H22.797v-15.216H50.02v15.216zm37.221 51.63H60.02v-15.215h27.222v15.215zm0-25.814H60.02v-15.216h27.222v15.216zm0-25.816H60.02v-15.216h27.222v15.216zm0-25.815H60.02V85.577h27.222v15.215zm37.223 51.631H97.241v-15.216h27.223v15.216zm0-25.816H97.241v-15.216h27.223v15.216zm0-25.815H97.241V85.577h27.223v15.215zm37.222 51.631h-27.222v-15.216h27.222v15.216zm0-25.816h-27.222v-15.216h27.222v15.216zm0-25.815h-27.222V85.577h27.222v15.215zm37.221 51.631h-27.222v-15.216h27.222v15.216zm0-25.816h-27.222v-15.216h27.222v15.216zm0-25.815h-27.222V85.577h27.222v15.215z"/></symbol><symbol viewBox="0 0 26 26" id="icon-check"><path d="M.3 14c-.2-.2-.3-.5-.3-.7s.1-.5.3-.7l1.4-1.4c.4-.4 1-.4 1.4 0l.1.1 5.5 5.9c.2.2.5.2.7 0L22.8 3.3h.1c.4-.4 1-.4 1.4 0l1.4 1.4c.4.4.4 1 0 1.4l-16 16.6c-.2.2-.4.3-.7.3-.3 0-.5-.1-.7-.3L.5 14.3.3 14z"/></symbol><symbol viewBox="0 0 511.999 511.999" id="icon-comment"><path d="M255.999 435.567c134.833 0 256-90.77 256-215.284C512 95.128 390.037 5 256 5 121.166 5 0 95.769 0 220.284c0 53.457 25.401 105.168 57.555 147.647 46.958 62.037 111.146 107.481 181.127 137.83a15 15 0 1 0 16.739-24.201c-29.686-30.633-31.09-42.511-31.063-44.626.519-.343 1.678-.927 3.696-1.448 5.668-1.466 8.696.081 27.945.081zM186 106.143h140c8.284 0 15 6.716 15 15s-6.716 15-15 15H186c-8.284 0-15-6.716-15-15s6.716-15 15-15zm-80 100.143h300c8.284 0 15 6.716 15 15s-6.716 15-15 15H106c-8.284 0-15-6.716-15-15s6.716-15 15-15zm0 100.1c-8.284 0-15-6.716-15-15s6.716-15 15-15h300c8.284 0 15 6.716 15 15s-6.716 15-15 15H106z"/></symbol><symbol viewBox="0 0 512 512" id="icon-comment-send"><path d="M326 106.143H186c-8.284 0-15 6.716-15 15s6.716 15 15 15h140c8.284 0 15-6.716 15-15s-6.716-15-15-15zm80 100.143H106c-8.284 0-15 6.716-15 15s6.716 15 15 15h300c8.284 0 15-6.716 15-15s-6.716-15-15-15zm0 70.1H106c-8.284 0-15 6.716-15 15s6.716 15 15 15h300c8.284 0 15-6.716 15-15s-6.716-15-15-15z"/><path d="M238.415 435.06C379.514 442.576 512 351.353 512 220.284 512 95.128 390.037 5 256 5 121.166 5 0 95.769 0 220.284c0 123.038 122.837 235.238 238.682 285.478a15 15 0 1 0 16.739-24.201c-29.686-30.633-31.09-42.511-31.063-44.626.519-.343 1.678-.927 3.696-1.448 3.036-.785 4.403-.745 10.361-.427zm-17.87-28.618c-7.592 1.963-20.943 7.437-25.048 22.042-1.904 6.771-1.506 14.137 1.334 22.372C116.635 403.348 30 312.378 30 220.284 30 118.118 131.383 35 256 35s226 83.118 226 185.284c0 100.097-101.997 192.318-241.985 184.818-6.876-.364-11.843-.633-19.47 1.34z"/></symbol><symbol viewBox="0 0 512 512" id="icon-date"><path d="M492 352c11.046 0 20-8.954 20-20V120c0-44.112-35.888-80-80-80h-26V20c0-11.046-8.954-20-20-20s-20 8.954-20 20v20h-91V20c0-11.046-8.954-20-20-20s-20 8.954-20 20v20h-90V20c0-11.046-8.954-20-20-20s-20 8.954-20 20v20H80C35.888 40 0 75.888 0 120v312c0 44.112 35.888 80 80 80h352c44.112 0 80-35.888 80-80 0-11.046-8.954-20-20-20s-20 8.954-20 20c0 22.056-17.944 40-40 40H80c-22.056 0-40-17.944-40-40V120c0-22.056 17.944-40 40-40h25v20c0 11.046 8.954 20 20 20s20-8.954 20-20V80h90v20c0 11.046 8.954 20 20 20s20-8.954 20-20V80h91v20c0 11.046 8.954 20 20 20s20-8.954 20-20V80h26c22.056 0 40 17.944 40 40v212c0 11.046 8.954 20 20 20z"/><circle cx="125" cy="210" r="20"/><circle cx="299" cy="210" r="20"/><circle cx="386" cy="210" r="20"/><circle cx="125" cy="297" r="20"/><circle cx="125" cy="384" r="20"/><circle cx="212" cy="210" r="20"/><circle cx="212" cy="297" r="20"/><circle cx="212" cy="384" r="20"/><circle cx="299" cy="297" r="20"/><circle cx="386" cy="297" r="20"/><circle cx="299" cy="384" r="20"/></symbol><symbol viewBox="0 0 52.623 52.623" id="icon-file"><path d="M14.371 52.623c-3.535 0-6.849-1.368-9.332-3.852s-3.852-5.797-3.852-9.332c0-3.534 1.368-6.848 3.852-9.331L32.333 2.814c3.905-3.903 9.973-3.728 14.114.413s4.319 10.208.414 14.114L21.22 42.982a6.186 6.186 0 0 1-8.738 0 6.187 6.187 0 0 1 0-8.738l17.369-17.369a1.5 1.5 0 1 1 2.121 2.121L14.603 36.365a3.184 3.184 0 0 0 0 4.496 3.186 3.186 0 0 0 4.496 0L44.74 15.22c2.695-2.696 2.518-6.94-.414-9.872s-7.176-3.109-9.872-.413L7.16 32.229a10.124 10.124 0 0 0-2.973 7.21c0 2.733 1.056 5.294 2.973 7.211s4.478 2.973 7.211 2.973c2.732 0 5.293-1.056 7.21-2.973l27.294-27.294a1.5 1.5 0 1 1 2.121 2.121L23.702 48.771a13.104 13.104 0 0 1-9.331 3.852z"/></symbol><symbol viewBox="0 0 368.167 368.167" id="icon-filter"><path d="M248.084 96.684h12c4.4 0 8-3.6 8-8s-3.6-8-8-8h-12c-4.4 0-8 3.6-8 8s3.6 8 8 8z"/><path d="M366.484 25.484c-2.8-5.6-8.4-8.8-14.4-8.8h-336c-6 0-11.6 3.6-14.4 8.8-2.8 5.6-2 12 1.6 16.8l141.2 177.6v115.6c0 6 3.2 11.2 8.4 14 2.4 1.2 4.8 2 7.6 2 3.2 0 6.4-.8 9.2-2.8l44.4-30.8c6.4-4.8 10-12 10-19.6v-78.8l140.8-177.2c3.6-4.8 4.4-11.2 1.6-16.8zm-156.8 186.4c-.8 1.2-1.6 2.8-1.6 4.8v81.2c0 2.8-1.2 5.2-3.2 6.8l-44.4 30.8v-118.8c0-2.8-1.2-5.2-3.2-6.4l-90.4-113.6h145.2c4.4 0 8-3.6 8-8s-3.6-8-8-8h-157.6l-38.4-48h336l-142.4 179.2z"/></symbol><symbol viewBox="0 0 350 350" id="icon-friend"><path d="M175 171.173c38.914 0 70.463-38.318 70.463-85.586C245.463 38.318 235.105 0 175 0s-70.465 38.318-70.465 85.587c0 47.268 31.549 85.586 70.465 85.586zM41.909 301.853c-.012-2.882-.024-.812 0 0zm266.176 2.251c.038-.789.013-5.474 0 0z"/><path d="M307.935 298.397c-1.305-82.342-12.059-105.805-94.352-120.657 0 0-11.584 14.761-38.584 14.761s-38.586-14.761-38.586-14.761C55.018 192.43 43.61 215.545 42.11 295.722c-.123 6.547-.18 6.891-.202 6.131.005 1.424.011 4.058.011 8.651 0 0 19.592 39.496 133.08 39.496 113.486 0 133.08-39.496 133.08-39.496 0-2.951.002-5.003.005-6.399-.022.47-.066-.441-.149-5.708z"/></symbol><symbol viewBox="0 0 512.009 512.009" id="icon-group"><circle cx="255.999" cy="64.005" r="64"/><path d="M351.871 301.957l-14.528-113.152a31.877 31.877 0 0 0-31.808-28.8h-17.536c-4.256 0-8.32 1.696-11.328 4.672l-20.672 20.672-20.672-20.672a16.115 16.115 0 0 0-11.328-4.672h-17.504c-16.512 0-30.208 12.384-31.808 28.384l-14.56 113.6c-.576 4.544.832 9.152 3.872 12.576a15.959 15.959 0 0 0 12 5.44h17.28l13.376 163.2c1.6 16.384 15.328 28.8 31.84 28.8h35.04c16.512 0 30.208-12.416 31.872-29.088l13.344-162.912h17.248c4.608 0 8.96-1.984 12-5.44a15.76 15.76 0 0 0 3.872-12.608z"/><circle cx="415.999" cy="64.005" r="64"/><path d="M95.999.005c-35.296 0-64 28.704-64 64s28.704 64 64 64c35.264 0 64-28.704 64-64s-28.736-64-64-64zm415.872 301.952l-14.528-113.12c-1.632-16.448-15.296-28.832-31.808-28.832h-17.536c-4.256 0-8.32 1.696-11.328 4.672l-20.672 20.672-20.672-20.672c-3.008-2.976-7.072-4.672-11.296-4.672h-17.536c-1.984 0-3.776.704-5.664 1.056 4.128 7.296 7.36 15.2 8.32 24.064l14.496 112.768c1.792 13.728-2.496 27.552-11.712 37.952-4.352 4.992-9.92 8.512-15.872 11.264l10.624 104.096c1.632 16.416 15.328 28.8 31.84 28.8h35.04c16.512 0 30.208-12.416 31.872-29.088l13.312-130.912h17.248c4.608 0 8.96-1.984 12-5.44a15.76 15.76 0 0 0 3.872-12.608zm-371.904 33.728c-9.088-10.272-13.312-24.064-11.584-37.728l14.56-113.632c.832-8.512 3.968-16.192 7.968-23.296-1.792-.32-3.488-1.024-5.376-1.024h-17.536c-4.256 0-8.32 1.696-11.328 4.672l-20.672 20.672-20.672-20.672c-3.008-2.976-7.072-4.672-11.296-4.672H46.494c-16.512 0-30.208 12.384-31.808 28.384l-14.56 113.6c-.576 4.544.832 9.152 3.872 12.576a16.01 16.01 0 0 0 12 5.44h17.28l13.376 131.2c1.6 16.384 15.328 28.8 31.84 28.8h35.04c16.512 0 30.208-12.416 31.872-29.088l10.624-103.84c-5.983-2.784-11.583-6.336-16.063-11.392z"/></symbol><symbol viewBox="0 0 512 512" id="icon-like"><path d="M376 30c-27.783 0-53.255 8.804-75.707 26.168-21.525 16.647-35.856 37.85-44.293 53.268-8.437-15.419-22.768-36.621-44.293-53.268C189.255 38.804 163.783 30 136 30 58.468 30 0 93.417 0 177.514c0 90.854 72.943 153.015 183.369 247.118 18.752 15.981 40.007 34.095 62.099 53.414C248.38 480.596 252.12 482 256 482s7.62-1.404 10.532-3.953c22.094-19.322 43.348-37.435 62.111-53.425C439.057 330.529 512 268.368 512 177.514 512 93.417 453.532 30 376 30z"/></symbol><symbol viewBox="0 0 26.009 26.009" id="icon-logout"><path d="M17.284 2.033v3.3a9.334 9.334 0 0 1 5.065 8.299c0 5.161-4.184 9.344-9.343 9.344-5.16 0-9.346-4.183-9.346-9.344 0-3.316 1.735-6.223 4.34-7.881V2.32C3.662 4.242.63 8.581.63 13.632c0 6.834 5.539 12.377 12.374 12.377 6.834 0 12.374-5.543 12.374-12.377 0-5.328-3.375-9.853-8.094-11.599z"/><path d="M12.766 15.229c1.359 0 2.457-.803 2.457-1.79V1.795C15.224.804 14.125 0 12.766 0c-1.357 0-2.456.804-2.456 1.795V13.44c.001.987 1.1 1.789 2.456 1.789z"/></symbol><symbol viewBox="0 0 500 603.6" id="icon-map"><style>.st0{fill:#0d0f0f}</style><path d="M73.2 73.2c-97.6 97.6-97.6 255.9 0 353.6l.2.2L250 603.6l176.1-176.1.7-.7c97.6-97.6 97.6-255.9 0-353.6s-255.9-97.6-353.6 0zM303 303c-29.3 29.3-76.8 29.3-106.1 0-29.3-29.3-29.3-76.8 0-106.1 29.3-29.3 76.8-29.3 106.1 0 29.3 29.4 29.3 76.8 0 106.1z"/></symbol><symbol viewBox="0 0 511.626 511.626" id="icon-message"><path d="M49.106 178.729c6.472 4.567 25.981 18.131 58.528 40.685 32.548 22.554 57.482 39.92 74.803 52.099 1.903 1.335 5.946 4.237 12.131 8.71 6.186 4.476 11.326 8.093 15.416 10.852 4.093 2.758 9.041 5.852 14.849 9.277 5.806 3.422 11.279 5.996 16.418 7.7 5.14 1.718 9.898 2.569 14.275 2.569h.575c4.377 0 9.137-.852 14.277-2.569 5.137-1.704 10.615-4.281 16.416-7.7 5.804-3.429 10.752-6.52 14.845-9.277 4.093-2.759 9.229-6.376 15.417-10.852 6.184-4.477 10.232-7.375 12.135-8.71 17.508-12.179 62.051-43.11 133.615-92.79 13.894-9.703 25.502-21.411 34.827-35.116 9.332-13.699 13.993-28.07 13.993-43.105 0-12.564-4.523-23.319-13.565-32.264-9.041-8.947-19.749-13.418-32.117-13.418H45.679c-14.655 0-25.933 4.948-33.832 14.844C3.949 79.562 0 91.934 0 106.779c0 11.991 5.236 24.985 15.703 38.974 10.466 13.99 21.604 24.983 33.403 32.976z"/><path d="M483.072 209.275c-62.424 42.251-109.824 75.087-142.177 98.501-10.849 7.991-19.65 14.229-26.409 18.699-6.759 4.473-15.748 9.041-26.98 13.702-11.228 4.668-21.692 6.995-31.401 6.995h-.578c-9.707 0-20.177-2.327-31.405-6.995-11.228-4.661-20.223-9.229-26.98-13.702-6.755-4.47-15.559-10.708-26.407-18.699-25.697-18.842-72.995-51.68-141.896-98.501C17.987 202.047 8.375 193.762 0 184.437v226.685c0 12.57 4.471 23.319 13.418 32.265 8.945 8.949 19.701 13.422 32.264 13.422h420.266c12.56 0 23.315-4.473 32.261-13.422 8.949-8.949 13.418-19.694 13.418-32.265V184.437c-8.186 9.132-17.7 17.417-28.555 24.838z"/></symbol><symbol viewBox="0 0 512 512" id="icon-people"><path d="M255.996 0c-42.419 0-76.8 34.381-76.8 76.8s34.381 76.8 76.8 76.8 76.8-34.381 76.8-76.8S298.415 0 255.996 0zm0 128c-28.228 0-51.2-22.972-51.2-51.2s22.972-51.2 51.2-51.2 51.2 22.972 51.2 51.2-22.972 51.2-51.2 51.2zm101.982 213.018l-25.6-140.8c-2.21-12.169-12.809-21.018-25.182-21.018h-102.4c-12.373 0-22.972 8.849-25.19 21.018l-25.6 140.8a25.604 25.604 0 0 0 5.53 20.983 25.61 25.61 0 0 0 19.661 9.199h16.358l9.327 117.231c1.05 13.312 12.16 23.569 25.515 23.569h51.2c13.355 0 24.465-10.257 25.515-23.569l9.327-117.231h16.358a25.591 25.591 0 0 0 19.652-9.199 25.611 25.611 0 0 0 5.529-20.983zm-65.186 4.582l-11.196 140.8h-51.2L219.2 345.6h-40.004l25.6-140.8h38.4v76.8c0 7.074 5.726 12.8 12.8 12.8 7.074 0 12.8-5.726 12.8-12.8v-76.8h38.4l25.6 140.8h-40.004zm121.924-320c-33.929 0-61.44 27.511-61.44 61.44s27.503 61.44 61.44 61.44 61.44-27.511 61.44-61.44-27.512-61.44-61.44-61.44zm0 102.4c-22.588 0-40.96-18.372-40.96-40.96s18.372-40.96 40.96-40.96 40.96 18.372 40.96 40.96S437.303 128 414.716 128zm81.595 170.419l-20.489-112.64c-1.766-9.737-10.249-16.819-20.147-16.819h-81.92c-9.446 0-17.434 6.536-19.695 15.599 1.519 3.524 2.799 7.177 3.507 11.093l7.526 41.404 8.661-47.616h30.72v61.44c0 5.658 4.582 10.24 10.24 10.24s10.24-4.582 10.24-10.24v-61.44h30.72l20.48 112.64h-32l-8.96 112.64h-40.96l-10.24-56.32-15.36 25.6 5.188 32.341c.845 10.65 9.728 18.859 20.412 18.859h40.96c10.684 0 19.567-8.209 20.412-18.859l7.458-93.781h13.09a20.486 20.486 0 0 0 20.157-24.141zM97.276 25.6c-33.937 0-61.44 27.511-61.44 61.44s27.511 61.44 61.44 61.44c33.937 0 61.44-27.511 61.44-61.44S131.213 25.6 97.276 25.6zm0 102.4c-22.588 0-40.96-18.372-40.96-40.96s18.372-40.96 40.96-40.96 40.96 18.372 40.96 40.96S119.863 128 97.276 128zm40.96 40.96h-81.92c-9.899 0-18.381 7.083-20.147 16.819l-20.48 112.64a20.486 20.486 0 0 0 4.429 16.785 20.475 20.475 0 0 0 15.718 7.356h13.09l7.458 93.781c.845 10.65 9.728 18.859 20.412 18.859h40.96c10.684 0 19.567-8.209 20.412-18.859L143.356 384l-15.36-25.6-10.24 56.32h-40.96l-8.96-112.64h-32l20.48-112.64h30.72v61.44c0 5.658 4.582 10.24 10.24 10.24s10.24-4.582 10.24-10.24v-61.44h30.72l8.661 47.616 7.526-41.404c.708-3.917 1.988-7.569 3.507-11.093-2.261-9.062-10.248-15.599-19.694-15.599z"/></symbol><symbol viewBox="0 0 512.001 512.001" id="icon-phone"><path d="M498.808 377.784l-63.633-63.647c-16.978-16.978-46.641-17.007-63.647 0l-10.611 10.611 127.284 127.277 10.607-10.607c17.619-17.62 17.56-46.104 0-63.634zM339.116 345.37c-13.39 10.373-32.492 9.959-44.727-2.303L168.572 217.163c-12.263-12.263-12.676-31.379-2.303-44.736L39.278 45.443c-54.631 63.68-52.495 159.633 7.8 219.928l199.103 199.19c57.86 57.858 152.635 65.532 219.932 7.797L339.116 345.37zM197.503 76.391L133.87 12.744c-16.978-16.978-46.641-17.007-63.647 0L59.612 23.355l127.284 127.277 10.607-10.608c17.618-17.618 17.56-46.102 0-63.633z"/></symbol><symbol viewBox="0 0 512 512" id="icon-photo"><path d="M479.216 112.164c.484-1.304.792-1.696.792-3.164 0-6.616-5.384-11-12-11h-28c-6.616 0-12 5.384-12 12 0 1.412.288 0 .74 4h-57.192L354 77.844C347.616 64.696 330.536 54 315.92 54H196.092c-14.616 0-31.7 10.696-38.084 23.844L140.46 114H124V96c0-2.212-1.78-2-3.992-2h-80C37.796 94 36 93.788 36 96v16c-20 0-36 16.148-36 36v272c0 19.852 16.156 38 36.008 38h440C495.86 458 512 439.852 512 420V148c0-18.764-14.432-34.204-32.784-35.836zM192 90c0-2.212 1.788-4 4-4h120c2.212 0 4 1.788 4 4v16c0 2.212-1.788 4-4 4H196c-2.212 0-4-1.788-4-4V90zM56.008 192c-13.236 0-24-10.764-24-24s10.764-24 24-24 24 10.764 24 24-10.764 24-24 24zm32 20c-6.616 0-12-5.384-12-12s5.384-12 12-12 12 5.384 12 12-5.384 12-12 12zm168 212c-77.196 0-140-62.804-140-140s62.804-140 140-140 140 62.804 140 140-62.804 140-140 140z"/><path d="M256.008 172c-61.756 0-112 50.244-112 112s50.244 112 112 112 112-50.244 112-112-50.244-112-112-112zm0 172c-33.084 0-60-26.916-60-60s26.916-60 60-60 60 26.916 60 60-26.916 60-60 60z"/></symbol><symbol viewBox="0 0 286.376 286.376" id="icon-plus"><path d="M268.477 125.29H161.086V17.899c0-9.885-8.013-17.898-17.898-17.898S125.29 8.014 125.29 17.899v107.39H17.9c-9.885 0-17.9 8.013-17.9 17.898s8.015 17.898 17.9 17.898h107.39v107.39c0 9.885 8.013 17.898 17.898 17.898s17.898-8.013 17.898-17.898v-107.39h107.391c9.885 0 17.898-8.014 17.898-17.898.001-9.884-8.013-17.897-17.898-17.897z" fill-rule="evenodd" clip-rule="evenodd"/></symbol><symbol viewBox="0 0 268.765 268.765" id="icon-profile"><path d="M267.92 119.461c-.425-3.778-4.83-6.617-8.639-6.617-12.315 0-23.243-7.231-27.826-18.414-4.682-11.454-1.663-24.812 7.515-33.231a7.463 7.463 0 0 0 .817-10.133 132.977 132.977 0 0 0-21.289-21.5c-3.063-2.458-7.557-2.116-10.213.825-8.01 8.871-22.398 12.168-33.516 7.529-11.57-4.867-18.866-16.591-18.152-29.176a7.455 7.455 0 0 0-6.595-7.849 134.163 134.163 0 0 0-30.232-.08 7.478 7.478 0 0 0-6.654 7.689c.438 12.461-6.946 23.98-18.401 28.672-10.985 4.487-25.272 1.218-33.266-7.574-2.642-2.896-7.063-3.252-10.141-.853a133.478 133.478 0 0 0-21.74 21.493c-2.481 3.086-2.116 7.559.802 10.214 9.353 8.47 12.373 21.944 7.514 33.53-4.639 11.046-16.109 18.165-29.24 18.165-4.261-.137-7.296 2.723-7.762 6.597a134.618 134.618 0 0 0-.058 30.561c.422 3.794 4.961 6.608 8.812 6.608 11.702-.299 22.937 6.946 27.65 18.415 4.698 11.454 1.678 24.804-7.514 33.23a7.469 7.469 0 0 0-.817 10.126 133.459 133.459 0 0 0 21.259 21.508c3.079 2.481 7.559 2.131 10.228-.81 8.04-8.893 22.427-12.184 33.501-7.536 11.599 4.852 18.895 16.575 18.181 29.167a7.464 7.464 0 0 0 6.595 7.85 133.572 133.572 0 0 0 30.233.081 7.479 7.479 0 0 0 6.653-7.696c-.451-12.454 6.946-23.973 18.386-28.657 11.059-4.517 25.286-1.211 33.281 7.572a7.51 7.51 0 0 0 10.142.848 133.787 133.787 0 0 0 21.74-21.494 7.461 7.461 0 0 0-.803-10.213c-9.353-8.47-12.388-21.946-7.529-33.524 4.568-10.899 15.612-18.217 27.491-18.217l1.662.043c3.853.313 7.398-2.655 7.865-6.588a134.504 134.504 0 0 0 .06-30.561zm-133.325 60.03c-24.718 0-44.824-20.106-44.824-44.824 0-24.717 20.106-44.824 44.824-44.824 24.717 0 44.823 20.107 44.823 44.824 0 24.718-20.106 44.824-44.823 44.824z" fill-rule="evenodd" clip-rule="evenodd"/></symbol><symbol viewBox="0 0 384 384" id="icon-return"><path d="M16 207.68c8.832 0 16-7.168 16-16C32 103.632 103.328 32 191 32c38.456 0 74.584 13.616 103.064 38.072H279.4c-8.832 0-16 7.168-16 16s7.168 16 16 16h52.512c8.832 0 16-7.168 16-16V33.336c0-8.832-7.168-16-16-16s-16 7.168-16 16v13.336C281.544 16.704 237.712 0 191 0 85.68 0 0 85.992 0 191.68c0 8.832 7.168 16 16 16zm352-31.36c-8.832 0-16 7.168-16 16C352 280.368 280.672 352 193 352c-38.008 0-73.752-13.28-102.072-37.2h15.368c8.832 0 16-7.168 16-16s-7.168-16-16-16h-52.52c-.144 0-.272.04-.408.04-.608.016-1.208.096-1.816.184-.448.064-.896.104-1.336.208-.528.12-1.048.312-1.568.488-.48.168-.968.312-1.432.52-.44.2-.856.456-1.28.696-.504.288-1 .568-1.472.904-.12.088-.256.136-.376.232-.272.208-.48.464-.736.688-.424.368-.848.736-1.232 1.152-.36.384-.672.784-.984 1.192-.312.408-.616.816-.896 1.248-.28.448-.52.912-.752 1.376-.232.456-.448.92-.632 1.4-.184.496-.328.992-.464 1.504-.128.488-.264.976-.344 1.48-.096.568-.136 1.136-.176 1.712-.024.328-.096.648-.096.984v52.736c0 8.832 7.168 16 16 16s16-7.168 16-16v-12.72C103.88 367.856 147.056 384 193 384c105.32 0 191-85.992 191-191.68 0-8.832-7.168-16-16-16z"/></symbol><symbol viewBox="0 0 451 451" id="icon-search"><path d="M447.05 428l-109.6-109.6c29.4-33.8 47.2-77.9 47.2-126.1C384.65 86.2 298.35 0 192.35 0 86.25 0 .05 86.3.05 192.3s86.3 192.3 192.3 192.3c48.2 0 92.3-17.8 126.1-47.2L428.05 447c2.6 2.6 6.1 4 9.5 4s6.9-1.3 9.5-4c5.2-5.2 5.2-13.8 0-19zM26.95 192.3c0-91.2 74.2-165.3 165.3-165.3 91.2 0 165.3 74.2 165.3 165.3s-74.1 165.4-165.3 165.4c-91.1 0-165.3-74.2-165.3-165.4z"/></symbol><symbol viewBox="0 0 512 512" id="icon-send"><path d="M467 61H45C20.218 61 0 81.196 0 106v300c0 24.72 20.128 45 45 45h422c24.72 0 45-20.128 45-45V106c0-24.72-20.128-45-45-45zm-6.214 30L256.954 294.833 51.359 91h409.427zM30 399.788V112.069l144.479 143.24L30 399.788zM51.213 421l144.57-144.57 50.657 50.222c5.864 5.814 15.327 5.795 21.167-.046L317 277.213 460.787 421H51.213zM482 399.787L338.213 256 482 112.212v287.575z"/></symbol><symbol viewBox="-9 10.7 480.3 480.3" id="icon-settings"><path d="M237.2 264.9h220.6c7.5 0 13.5-6 13.5-13.5s-6-13.5-13.5-13.5H237.2c-6.3-31.3-34-55-67.2-55s-60.9 23.7-67.2 55H4.6c-7.5 0-13.5 6-13.5 13.5s6 13.5 13.5 13.5h98.2c6.3 31.3 34 55 67.2 55 33.1 0 60.9-23.6 67.2-55zm-108.7-13.6c0-22.9 18.6-41.5 41.5-41.5s41.5 18.6 41.5 41.5-18.6 41.5-41.5 41.5-41.5-18.5-41.5-41.5zM350.4 99.5h107.4c7.5 0 13.5-6 13.5-13.5s-6-13.5-13.5-13.5H350.4c-6.3-31.3-34-55-67.2-55s-60.9 23.7-67.2 55H4.6c-7.5 0-13.5 6-13.5 13.5s6 13.5 13.5 13.5h211.5c6.3 31.3 34 55 67.2 55s60.8-23.6 67.1-55zM241.7 86c0-22.9 18.6-41.5 41.5-41.5s41.5 18.6 41.5 41.5-18.6 41.5-41.5 41.5-41.5-18.7-41.5-41.5zm108.7 343.2h107.4c7.5 0 13.5-6 13.5-13.5s-6-13.5-13.5-13.5H350.4c-6.3-31.3-34-55-67.2-55s-60.9 23.7-67.2 55H4.5c-7.5 0-13.5 6-13.5 13.5s6 13.5 13.5 13.5h211.6c6.3 31.3 34 55 67.2 55s60.8-23.6 67.1-55zm-108.7-13.5c0-22.9 18.6-41.5 41.5-41.5s41.5 18.6 41.5 41.5-18.6 41.5-41.5 41.5-41.5-18.6-41.5-41.5z"/></symbol><symbol viewBox="0 0 48.625 48.625" id="icon-site"><path d="M35.432 10.815l.047.361-.541.112-.072.769h.648l.862-.083.445-.529-.473-.184-.259-.298-.389-.63-.186-.891-.731.149-.205.314v.354l.352.241z"/><path d="M34.809 11.111l.039-.482-.429-.185-.6.139-.445.714v.463h.519zm-12.35 2.047l-.132.34h-.639v.33h.152l.022.162.392-.033.245-.152.064-.307.317-.027.125-.258-.291-.06-.255.005zm-1.647.599l-.025.323.463-.039.048-.324-.278-.219z"/><path d="M48.619 24.061a24.552 24.552 0 0 0-.11-2.112 24.165 24.165 0 0 0-1.609-6.62c-.062-.155-.119-.312-.185-.465a24.341 24.341 0 0 0-4.939-7.441 24.19 24.19 0 0 0-1.11-1.086A24.22 24.22 0 0 0 24.312 0c-6.345 0-12.126 2.445-16.46 6.44a24.6 24.6 0 0 0-2.78 3.035A24.18 24.18 0 0 0 0 24.312c0 13.407 10.907 24.313 24.313 24.313 9.43 0 17.617-5.4 21.647-13.268a24.081 24.081 0 0 0 2.285-6.795c.245-1.381.379-2.801.379-4.25.001-.084-.004-.167-.005-.251zm-4.576-9.717l.141-.158c.185.359.358.724.523 1.094l-.23-.009-.434.06v-.987zm-3.513-4.242l.004-1.086c.382.405.75.822 1.102 1.254l-.438.652-1.531-.014-.096-.319.959-.487zM11.202 7.403v-.041h.487l.042-.167h.797v.348l-.229.306h-1.098l.001-.446zm.778 1.085s.487-.083.529-.083 0 .486 0 .486l-1.098.069-.209-.25.778-.222zm33.612 9.651h-1.779l-1.084-.807-1.141.111v.696h-.361l-.39-.278-1.976-.501v-1.28l-2.504.195-.776.417h-.994l-.487-.049-1.207.67v1.261l-2.467 1.78.205.76h.5l-.131.724-.352.129-.019 1.892 2.132 2.428h.928l.056-.148h1.668l.481-.445h.946l.519.52 1.41.146-.187 1.875 1.565 2.763-.824 1.575.056.742.649.647v1.784l.852 1.146v1.482h.736c-4.096 5.029-10.33 8.25-17.305 8.25C12.009 46.625 2 36.615 2 24.312c0-3.097.636-6.049 1.781-8.732v-.696l.798-.969c.277-.523.574-1.033.891-1.53l.036.405-.926 1.125a22.14 22.14 0 0 0-.798 1.665v1.27l.927.446v1.765l.889 1.517.723.111.093-.52-.853-1.316-.167-1.279h.5l.211 1.316 1.233 1.799-.318.581.784 1.199 1.947.482v-.315l.779.111-.074.556.612.112.945.258 1.335 1.521 1.705.129.167 1.391-1.167.816-.055 1.242-.167.76 1.688 2.113.129.724s.612.166.687.166c.074 0 1.372.983 1.372.983v3.819l.463.13-.315 1.762.779 1.039-.144 1.746 1.029 1.809 1.321 1.154 1.328.024.13-.427-.976-.822.056-.408.175-.5.037-.51-.66-.02-.333-.418.548-.527.074-.398-.612-.175.036-.37.872-.132 1.326-.637.445-.816 1.391-1.78-.316-1.392.427-.741 1.279.039.861-.682.278-2.686.955-1.213.167-.779-.871-.279-.575-.943-1.965-.02-1.558-.594-.074-1.111-.52-.909-1.409-.021-.814-1.278-.723-.353-.037.39-1.316.078-.482-.671-1.373-.279-1.131 1.307-1.78-.302-.129-2.006-1.299-.222.521-.984-.149-.565-1.707 1.141-1.074-.131-.383-.839.234-.865.592-1.091 1.363-.69 2.632-.001-.007.803.946.44-.075-1.372.682-.686 1.376-.904.094-.636 1.372-1.428 1.459-.808-.129-.106.988-.93.362.096.166.208.375-.416.092-.041-.411-.058-.417-.139v-.4l.221-.181h.487l.223.098.193.39.236-.036v-.034l.068.023.684-.105.097-.334.39.098v.362l-.362.249h.001l.053.397 1.239.382.003.015.285-.024.019-.537-.982-.447-.056-.258.815-.278.036-.78-.852-.519-.056-1.315-1.168.574h-.426l.112-1.001-1.59-.375-.658.497v1.516l-1.183.375-.474.988-.514.083v-1.264l-1.112-.154-.556-.362-.224-.819 1.989-1.164.973-.296.098.654.542-.028.042-.329.567-.081.01-.115-.244-.101-.056-.348.697-.059.421-.438.023-.032.005.002.128-.132 1.465-.185.648.55-1.699.905 2.162.51.28-.723h.945l.334-.63-.668-.167v-.797l-2.095-.928-1.446.167-.816.427.056 1.038-.853-.13-.131-.574.817-.742-1.483-.074-.426.129-.185.5.556.094-.111.556-.945.056-.148.37-1.371.038s-.038-.778-.093-.778l1.075-.019.817-.798-.446-.223-.593.576-.984-.056-.593-.816h-1.261l-1.316.983h1.206l.11.353-.313.291 1.335.037.204.482-1.503-.056-.073-.371-.945-.204-.501-.278-1.125.009A22.188 22.188 0 0 1 24.312 2c5.642 0 10.797 2.109 14.73 5.574l-.265.474-1.029.403-.434.471.1.549.531.074.32.8.916-.369.151 1.07h-.276l-.752-.111-.834.14-.807 1.14-1.154.181-.167.988.487.115-.141.635-1.146-.23-1.051.23-.223.585.182 1.228.617.289 1.035-.006.699-.063.213-.556 1.092-1.419.719.147.708-.64.132.5 1.742 1.175-.213.286-.785-.042.302.428.483.106.566-.236-.012-.682.251-.126-.202-.214-1.162-.648-.306-.861h.966l.309.306.832.717.035.867.862.918.321-1.258.597-.326.112 1.029.583.64 1.163-.02c.225.579.427 1.168.604 1.769l-.121.112zm-32.331-7.093l.584-.278.528.126-.182.709-.57.181-.36-.738zm3.099 1.669v.459h-1.334l-.5-.139.125-.32.641-.265h.876v.265h.192zm.614.64v.445l-.334.215-.416.077v-.737h.75zm-.376-.181v-.529l.459.418-.459.111zm.209 1.07v.433l-.319.32h-.709l.111-.486.335-.029.069-.167.513-.071zm-1.766-.889h.737l-.945 1.321-.39-.209.084-.556.514-.556zm3.018.737v.432h-.709l-.194-.28v-.402h.056l.847.25zm-.655-.594l.202-.212.341.212-.273.225-.27-.225zm28.55 5.767l.07-.082c.029.126.06.252.088.38l-.158-.298z"/><path d="M3.782 14.884v.696c.243-.568.511-1.122.798-1.665l-.798.969z"/></symbol><symbol viewBox="0 0 512 512" id="icon-step1"><path d="M65.826 170.317c4.523 1.323 9.259-1.28 10.573-5.811 25.276-86.81 106.146-147.439 196.668-147.439 14.49 0 28.894 1.51 42.923 4.506-.307 12.279 4.992 20.702 8.405 26.112.947 1.502 2.236 3.55 2.389 3.831 0 30.601-6.255 35.584-6.187 35.601-13.833 0-36.531 12.356-45.065 28.288-5.239 9.771-4.813 20.113 1.186 29.124 4.113 6.17 7.654 13.03 11.085 19.669 7.253 14.046 15.3 29.628 27.938 29.628 2.671 0 5.555-.7 8.678-2.261 9.95-4.975 17.084-19.123 23.979-32.794 3.038-6.025 7.501-14.865 10.146-17.673 8.661 1.178 12.894 9.011 18.62 21.419 4.215 9.131 8.576 18.56 17.143 22.844 14.421 7.211 61.841-.341 88.047-11.469a8.534 8.534 0 0 0 4.898-10.078c-17.911-66.219-66.56-121.301-130.15-147.337-4.36-1.792-9.353.299-11.136 4.659s.307 9.344 4.668 11.127c56.329 23.074 99.96 70.818 118.008 128.649-26.556 9.361-60.638 12.177-66.705 9.182-3.208-1.604-6.434-8.576-9.276-14.729-5.948-12.885-14.097-30.532-34.901-31.454-10.752-.649-16.811 11.725-24.602 27.179-4.574 9.062-11.477 22.758-16.981 25.464-3.166-.742-9.455-12.919-13.21-20.19-3.473-6.724-7.407-14.345-12.049-21.299-2.517-3.772-2.62-7.356-.341-11.605 5.862-10.94 23.45-19.277 30.02-19.277 15.428 0 23.253-17.715 23.253-52.668 0-4.966-2.551-9.011-5.009-12.928-3.618-5.726-7.347-11.656-5.137-21.777.981-4.497-1.783-8.969-6.246-10.095C309.786 2.261 291.482 0 273.067 0 175.002 0 87.39 65.69 60.015 159.744c-1.323 4.523 1.288 9.259 5.811 10.573zm309.607 55.987c-2.466.7-5.837 1.673-6.733 1.741-11.793 0-19.268 9.131-24.721 15.795-2.082 2.543-5.845 7.108-8.243 7.177-3.857-1.929-7.91-2.901-12.049-2.901-10.061 0-18.773 5.982-20.719 14.242-1.374 5.803.649 13.747 10.419 18.637 13.858 6.929 28.186 14.089 34.56 20.463 4.386 4.386 11.972 6.903 20.821 6.903 13.44 0 31.309-6.528 37.444-24.943 2.423-7.253 8.218-12.8 13.824-18.159 6.502-6.238 12.655-12.117 12.74-20.557.06-4.984-2.15-9.745-6.554-14.157-5.999-5.99-14.165-9.037-24.286-9.037-9.71 0-19.421 2.774-26.503 4.796zm40.277 18.167c-.401 1.681-4.651 5.751-7.475 8.456-6.443 6.161-14.456 13.833-18.21 25.097-4.215 12.629-18.449 13.269-21.257 13.269-4.975 0-8.098-1.314-8.747-1.894-8.346-8.346-23.236-15.795-39.006-23.671-.034-.017-.06-.026-.094-.043 1.604-.657 4.574-.7 7.185.597 2.756 1.382 5.589 2.082 8.405 2.082 9.446 0 15.411-7.287 20.668-13.713 3.849-4.685 7.817-9.54 11.52-9.54 3.029 0 6.554-1.007 11.418-2.398 6.46-1.843 14.498-4.139 21.82-4.139 5.504 0 9.498 1.323 12.211 4.036 1.186 1.196 1.511 1.861 1.562 1.861z"/><path d="M492.817 191.164c-.649-4.676-5.018-7.927-9.617-7.287-4.668.649-7.936 4.958-7.287 9.626a207.833 207.833 0 0 1 1.954 28.365c0 112.111-90.539 203.46-202.342 204.783-30.345-19.379-58.786-43.119-46.114-72.678 22.75-53.103 1.579-72.892-7.467-81.357l-1.698-1.613c-2.586-2.577-5.504-4.335-8.073-5.879-6.246-3.746-7.927-4.753-4.574-14.814 2.219-6.682 5.171-9.796 8.576-13.406 7.893-8.346 13.926-16.648 13.926-40.781 0-14.046-7.125-25.25-19.55-30.737-14.089-6.229-32.905-4.028-42.854 5.001-6.212 5.649-8.303 13.338-5.726 21.077 6.084 18.219-7.817 44.553-33.792 64.034-6.878 5.154-8.926 2.79-10.155 1.382-7.62-8.781-7.031-33.758-.777-40.004 4.19-4.19 5.436-9.54 3.328-14.31-6.912-15.676-51.004-14.464-59.75-14.054a8.546 8.546 0 0 0-8.081 7.484c-1.084 8.823-1.544 16.563-1.544 25.873 0 102.315 69.282 190.882 168.474 215.39 4.557 1.135 9.199-1.664 10.325-6.238 1.135-4.574-1.664-9.199-6.238-10.325-91.554-22.625-155.494-104.391-155.494-198.829 0-5.922.205-11.153.657-16.486 14.438-.017 26.701 1.655 32.956 3.567-9.788 15.283-8.713 45.329 3.251 59.119 8.576 9.882 21.018 10.291 33.289 1.084 32.785-24.585 48.384-57.208 39.74-83.081-.273-.845-.546-1.638 1.024-3.063 4.489-4.079 15.915-5.803 24.465-2.014 6.315 2.79 9.387 7.74 9.387 15.13 0 19.26-3.883 23.373-9.259 29.056-3.985 4.224-8.951 9.472-12.373 19.738-7.671 23.049 4.634 30.438 11.989 34.85 1.903 1.135 3.695 2.21 4.787 3.302a86.639 86.639 0 0 0 2.108 2.014c7.509 7.014 21.47 20.079 3.439 62.157-20.446 47.71 32.273 80.973 54.784 95.181a8.607 8.607 0 0 0 4.557 1.314c122.334 0 221.867-99.533 221.867-221.867a224.594 224.594 0 0 0-2.118-30.704z"/><path d="M415.667 413.602c-41.438 30.874-90.752 47.198-142.601 47.198-131.746 0-238.933-107.179-238.933-238.933 0-4.71-3.823-8.533-8.533-8.533s-8.533 3.823-8.533 8.533c0 138.3 110.251 251.255 247.467 255.787v25.813c0 4.71 3.823 8.533 8.533 8.533s8.533-3.823 8.533-8.533v-25.941c52.403-1.698 102.144-18.85 144.265-50.236a8.535 8.535 0 0 0-10.198-13.688z"/><path d="M279.595 345.745c-10.65 0-23.142 12.254-27.699 23.253-3.558 8.593-2.5 16.606 2.91 22.016 5.094 5.094 12.655 8.021 20.745 8.021s15.65-2.927 20.753-8.021c5.666-5.666 7.049-13.995 3.891-23.441-2.125-6.383-6.34-13.133-11.255-18.057-2.442-2.431-5.761-3.771-9.345-3.771zm4.642 33.195c-3.789 3.789-13.636 3.686-17.323.094-.119-.367-.111-2.5 2.15-6.238 2.944-4.855 7.1-8.286 9.353-9.506 2.423 2.876 4.523 6.477 5.589 9.677.948 2.824 1.033 5.179.231 5.973z"/></symbol><symbol viewBox="0 0 512 512" id="icon-step2"><path d="M123.856 71.638H105.66c2.737-20.263 13.941-21.281 19.097-21.75a10 10 0 0 0 9.094-9.959V10.004c0-2.749-1.132-5.378-3.13-7.267S126.033-.131 123.29.02C91.68 1.798 54 17.758 54 83.696v52.04c0 8.687 7.067 15.754 15.754 15.754h54.103c8.687 0 15.754-7.068 15.753-15.755V87.392c0-8.687-7.067-15.754-15.754-15.754zm-4.245 59.851H74V83.696c0-46.01 20.461-58.86 39.851-62.487v10.514c-13.391 4.076-28.803 16.114-28.803 49.915 0 5.523 4.477 10 10 10h24.563v39.851zm106.48-59.851h-18.197c2.737-20.263 13.941-21.281 19.097-21.75a10 10 0 0 0 9.094-9.959V10.004c0-2.749-1.132-5.378-3.13-7.267s-4.69-2.868-7.431-2.717c-31.61 1.778-69.29 17.738-69.29 83.676v52.04c0 8.687 7.067 15.754 15.754 15.754h54.103c8.687 0 15.755-7.068 15.754-15.756V87.392c0-8.687-7.067-15.754-15.754-15.754zm-4.246 59.852h-45.611V83.696c0-46.01 20.461-58.86 39.851-62.487v10.514c-13.391 4.076-28.803 16.114-28.803 49.915 0 5.523 4.477 10 10 10h24.563v39.852zm63.225-50.695c-1.86-1.86-4.44-2.93-7.07-2.93s-5.21 1.07-7.07 2.93-2.93 4.44-2.93 7.07 1.07 5.21 2.93 7.07c1.86 1.86 4.44 2.93 7.07 2.93s5.21-1.07 7.07-2.93 2.93-4.44 2.93-7.07-1.07-5.21-2.93-7.07z"/><path d="M334.267 77.864h-12.601c-5.523 0-10 4.477-10 10s4.477 10 10 10h12.601C421.241 97.864 492 168.623 492 255.597c0 74.232-52.648 139.152-125.187 154.365a10 10 0 0 0-7.947 9.787v58.104l-61.594-61.594a10.001 10.001 0 0 0-7.071-2.929H177.733C90.759 413.33 20 342.571 20 255.597c0-26.805 6.843-53.274 19.79-76.548 2.686-4.826.949-10.915-3.877-13.6-4.827-2.686-10.916-.949-13.6 3.877C7.715 195.565 0 225.397 0 255.597 0 353.6 79.73 433.33 177.733 433.33h108.326l75.736 75.736a9.997 9.997 0 0 0 10.898 2.167 9.999 9.999 0 0 0 6.173-9.238v-74.321c36.183-9.376 68.9-30.239 92.807-59.343C497.678 336.674 512 296.638 512 255.597c0-98.002-79.73-177.732-177.733-177.733z"/><path d="M379.064 177.492H132.937c-5.523 0-10 4.477-10 10s4.477 10 10 10h246.126c5.523 0 10.001-4.477 10.001-10s-4.477-10-10-10zm0 53.333H132.937c-5.523 0-10 4.477-10 10s4.477 10 10 10h246.126c5.523 0 10.001-4.477 10.001-10s-4.477-10-10-10zm0 53.333H132.937c-5.523 0-10 4.478-10 10s4.477 10 10 10h246.126c5.523 0 10.001-4.478 10.001-10s-4.477-10-10-10zm-.001 53.334H247.871c-5.523 0-10 4.478-10 10s4.477 10 10 10h131.192c5.523 0 10-4.478 10-10s-4.477-10-10-10zm-187.456-.001h-.161c-5.523 0-10 4.478-10 10s4.477 10 10 10h.161c5.523 0 10-4.478 10-10s-4.477-10-10-10z"/></symbol><symbol viewBox="0 0 480 480" id="icon-step3"><path d="M360 16H40c-4.424 0-8 3.584-8 8v24H8c-4.424 0-8 3.584-8 8v368c0 22.056 17.944 40 40 40h288c4.424 0 8-3.584 8-8v-24h24c4.424 0 8-3.584 8-8V24c0-4.416-3.576-8-8-8zm-40 408v24H40c-13.232 0-24-10.768-24-24V64h240v56c0 4.416 3.576 8 8 8h56v296zm-48-312V75.32L308.688 112H272zm80 304h-16V120c0-.168-.088-.312-.096-.48a7.804 7.804 0 0 0-.432-2.128c-.088-.256-.152-.512-.264-.752-.384-.824-.864-1.592-1.528-2.264-.016-.016-.016-.024-.032-.04l-63.984-63.992c-.008-.008-.024-.016-.032-.024-.664-.656-1.44-1.136-2.256-1.52-.256-.12-.528-.192-.8-.28a7.767 7.767 0 0 0-2.048-.416c-.184-.008-.336-.104-.528-.104H48V32h304v384z"/><path d="M48 112h176v16H48zm0 32h176v16H48zm32 40c-17.648 0-32 14.352-32 32s14.352 32 32 32 32-14.352 32-32-14.352-32-32-32zm0 48c-8.824 0-16-7.176-16-16s7.176-16 16-16 16 7.176 16 16-7.176 16-16 16zm0 40c-17.648 0-32 14.352-32 32s14.352 32 32 32 32-14.352 32-32-14.352-32-32-32zm0 48c-8.824 0-16-7.176-16-16s7.176-16 16-16 16 7.176 16 16-7.176 16-16 16zm0 40c-17.648 0-32 14.352-32 32s14.352 32 32 32 32-14.352 32-32-14.352-32-32-32zm0 48c-8.824 0-16-7.176-16-16s7.176-16 16-16 16 7.176 16 16-7.176 16-16 16zm56-200h152v16H136zm0 88h152v16H136zm0 88h152v16H136zM448 24c-17.648 0-32 14.352-32 32v352c0 1.24.288 2.472.84 3.576l24 48A8.009 8.009 0 0 0 448 464c3.032 0 5.8-1.712 7.16-4.424l24-48A8.019 8.019 0 0 0 480 408V56c0-17.648-14.352-32-32-32zm0 414.112L436.944 416h22.112L448 438.112zM464 400h-32V128h32v272zm0-288h-32V96h32v16zm0-32h-32V56c0-8.824 7.176-16 16-16s16 7.176 16 16v24z"/></symbol><symbol viewBox="0 0 512.001 512.001" id="icon-time"><path d="M432.158 432.334c37.792-42.847 58.451-97.303 58.451-154.941 0-29.269-5.327-57.718-15.516-84.244a14.985 14.985 0 0 0 4.28-2.976c43.434-43.436 43.434-114.109 0-157.545C458.333 11.588 430.357 0 400.602 0c-29.756 0-57.73 11.588-78.772 32.628a14.995 14.995 0 0 0-1.859 18.948c-20.555-5.789-42.03-8.791-63.97-8.791s-43.418 3.003-63.974 8.792c3.912-5.83 3.297-13.796-1.857-18.948C169.131 11.588 141.156 0 111.4 0S53.67 11.588 32.629 32.628c-43.434 43.436-43.434 114.109 0 157.545a14.983 14.983 0 0 0 4.279 2.975c-10.189 26.526-15.517 54.975-15.517 84.245 0 57.639 20.66 112.095 58.453 154.942l-54.06 54.059c-5.858 5.857-5.858 15.354 0 21.213 2.929 2.93 6.768 4.394 10.606 4.394s7.678-1.465 10.607-4.394l54.06-54.059C143.907 491.34 198.363 512 256.001 512c57.64 0 112.097-20.66 154.944-58.452l54.058 54.059c2.929 2.93 6.768 4.394 10.606 4.394s7.678-1.465 10.607-4.394c5.858-5.857 5.858-15.355 0-21.213l-54.058-54.06zM400.602 30c21.743 0 42.185 8.467 57.56 23.841 28.115 28.116 31.324 71.852 9.627 103.532L354.619 44.204C368.055 34.969 383.946 30 400.602 30zM53.843 53.841C69.217 38.467 89.658 30 111.4 30c16.654 0 32.547 4.969 45.981 14.204L44.216 157.373c-21.697-31.682-18.488-75.416 9.627-103.532zM256.001 482C143.18 482 51.393 390.214 51.393 277.393S143.18 72.785 256.001 72.785s204.608 91.787 204.608 204.608S368.822 482 256.001 482z"/><path d="M352.4 262.393h-81.399v-81.4c0-8.284-6.716-15-15-15-8.284 0-15 6.716-15 15v96.4c0 8.284 6.716 15 15 15H352.4c8.284 0 15-6.716 15-15 0-8.285-6.715-15-15-15z"/></symbol><symbol viewBox="0 0 97.395 97.395" id="inst"><path d="M12.501 0h72.393c6.875 0 12.5 5.09 12.5 12.5v72.395c0 7.41-5.625 12.5-12.5 12.5H12.501C5.624 97.395 0 92.305 0 84.895V12.5C0 5.09 5.624 0 12.501 0zm58.447 10.821a4.395 4.395 0 0 0-4.383 4.385v10.495a4.396 4.396 0 0 0 4.383 4.385h11.008a4.398 4.398 0 0 0 4.385-4.385V15.206a4.397 4.397 0 0 0-4.385-4.385H70.948zm15.439 30.367h-8.572a28.486 28.486 0 0 1 1.25 8.355c0 16.2-13.556 29.332-30.275 29.332-16.718 0-30.272-13.132-30.272-29.332 0-2.904.438-5.708 1.25-8.355h-8.945v41.141a3.884 3.884 0 0 0 3.872 3.872h67.822a3.883 3.883 0 0 0 3.872-3.872V41.188h-.002zM48.789 29.533c-10.802 0-19.56 8.485-19.56 18.953s8.758 18.953 19.56 18.953c10.803 0 19.562-8.485 19.562-18.953s-8.758-18.953-19.562-18.953z"/></symbol><symbol viewBox="0 0 54 54" id="map-location"><path d="M26.7 0C16 .4 7.1 8.8 6.1 19.4c-.2 2.1-.1 4.2.3 6.2 0 0 0 .2.1.7.3 1.5.8 2.9 1.5 4.3 2.2 5.1 7.2 13.7 18.4 23 .7.6 1.7.6 2.4 0C40 44.3 45 35.7 47.2 30.6c.6-1.4 1.1-2.8 1.5-4.3.1-.4.1-.7.1-.7.3-1.3.4-2.7.4-4.1C49 9.4 39-.4 26.7 0zm.8 32.3c-5.8 0-10.5-4.7-10.5-10.5s4.7-10.5 10.5-10.5S38 16 38 21.8s-4.7 10.5-10.5 10.5z"/></symbol><symbol viewBox="0 0 20 20" id="modal-close"><path d="M11.769 10l7.865-7.865A1.25 1.25 0 1 0 17.865.366L10 8.231 2.135.366A1.25 1.25 0 1 0 .366 2.135L8.232 10 .366 17.864a1.25 1.25 0 1 0 1.769 1.769L10 11.768l7.865 7.865a1.247 1.247 0 0 0 1.769 0 1.25 1.25 0 0 0 0-1.769L11.769 10z"/></symbol><symbol viewBox="-258.5 24.5 512 512" id="navbar-map"><path d="M-3.1 30.5c-111.1 0-201.5 90.4-201.5 201.5 0 12.9 1.2 25.6 3.6 37.7.1.4.4 2.2 1.4 6.9 3.1 13.7 7.6 27 13.5 39.7 21.4 50.3 68.4 127.5 171 209.9 3.5 2.8 7.8 4.3 12.3 4.3 4.4 0 8.8-1.5 12.3-4.3 102.7-82.5 149.6-159.7 171-209.9 5.9-12.8 10.5-26.2 13.5-39.7 1-4.7 1.3-6.4 1.4-6.8 2.4-12.7 3.6-25.4 3.6-37.7-.6-111.2-91.1-201.6-202.1-201.6zm162.5 201.4c0 10.5-1 20.9-3 31l-.1.4c0 .2-.1.3-.1.4-.1.6-.4 2.1-.9 4.1l-.1.7c-2.5 10.8-6.1 21.3-10.7 31.3l-.4.9c-18.4 43.6-58.9 111-147.3 185-88.4-74-128.9-141.4-147.3-185l-.3-.7-.2-.3c-4.5-9.9-8.1-20.4-10.7-31.3l-.2-.9c-.4-1.6-.6-2.8-.7-3.5v-.2c0-.2-.1-.4-.1-.5l-.1-.6c-2-10.1-3-20.5-3-30.9 0-89.6 72.9-162.5 162.5-162.5 89.8.1 162.7 73 162.7 162.6z"/><path d="M-3.1 104.2c-71.7 0-130 58.3-130 130s58.3 130 130 130 130-58.3 130-130-58.3-130-130-130zm91 130c0 50.2-40.8 91-91 91s-91-40.8-91-91 40.8-91 91-91 91 40.8 91 91z"/></symbol><symbol viewBox="-262.5 24.5 512 512" id="navbar-message"><path d="M172.1 103.8C124.9 56.5 62.1 30.5-4.6 30.5c-66.7 0-129.5 26-176.7 73.3-44.1 44.1-70 102.8-72.8 165.3-2.8 61.1 16.6 120.5 54.6 167.8-7 13.2-18.4 29.3-34.8 37.4-11.3 5.6-17.6 17.7-15.7 30.1 1.9 12.5 11.6 22.1 24 24.1 6.5 1 13.3 1.5 20.2 1.5 21.4 0 53.4-4.8 86.3-27.5 35.3 18.3 74.9 28 114.8 28 32.6 0 64.5-6.2 94.7-18.6 30.9-12.6 58.6-31 82.3-54.7 47.2-47.2 73.3-110 73.3-176.7-.1-66.7-26.2-129.4-73.5-176.7zM-158.6 443v-.1c1.6-4 2-8.2 1.1-12.3-.5-3.9-2.2-7.7-4.8-10.7-73.5-83.1-69.7-209.6 8.8-288.1C-113.8 92.1-61 70.3-4.7 70.3c56.3 0 109.1 21.9 148.7 61.5 39.7 39.7 61.6 92.5 61.6 148.7 0 56.2-21.8 109.1-61.5 148.7C76.3 497-28.6 510.5-111.2 462c-3.1-1.9-6.6-2.8-10-2.8-4.9 0-9.7 1.8-13.4 5.3-.6.4-1 .7-1.4 1.1-18.8 14.5-37.4 20.9-52.7 23.4 14.5-14.8 24.1-32.5 30.1-46z"/><path d="M-4.6 303.5c12.7 0 23-10.3 23-23s-10.3-23-23-23-23 10.3-23 23 10.3 23 23 23zm88.3 0c12.7 0 23-10.3 23-23s-10.3-23-23-23-23 10.3-23 23 10.4 23 23 23zm-176.7 0c12.7 0 23-10.3 23-23s-10.3-23-23-23-23 10.3-23 23 10.3 23 23 23z"/></symbol><symbol viewBox="-223 25 512 512" id="navbar-search"><path d="M277.4 495.5L157.2 375.3C187 339 205 292.4 205 241.7 204.9 125.4 110.5 31-5.8 31c-116.4 0-210.7 94.4-210.7 210.7s94.3 210.7 210.7 210.7c50.7 0 97.1-17.9 133.5-47.7l120.2 120.1c8.2 8.2 21.3 8.2 29.5 0 8.1-8 8.1-21.2 0-29.3zm-283.2-85c-93.2 0-168.9-75.7-168.9-168.8S-98.9 72.8-5.8 72.8c93.1 0 168.9 75.8 168.9 168.9S87.3 410.5-5.8 410.5z"/></symbol><symbol viewBox="0 0 95.481 95.481" id="ok"><path d="M43.041 67.254c-7.402-.772-14.076-2.595-19.79-7.064-.709-.556-1.441-1.092-2.088-1.713-2.501-2.402-2.753-5.153-.774-7.988 1.693-2.426 4.535-3.075 7.489-1.682.572.27 1.117.607 1.639.969 10.649 7.317 25.278 7.519 35.967.329 1.059-.812 2.191-1.474 3.503-1.812 2.551-.655 4.93.282 6.299 2.514 1.564 2.549 1.544 5.037-.383 7.016-2.956 3.034-6.511 5.229-10.461 6.761-3.735 1.448-7.826 2.177-11.875 2.661.611.665.899.992 1.281 1.376 5.498 5.524 11.02 11.025 16.5 16.566 1.867 1.888 2.257 4.229 1.229 6.425-1.124 2.4-3.64 3.979-6.107 3.81-1.563-.108-2.782-.886-3.865-1.977-4.149-4.175-8.376-8.273-12.441-12.527-1.183-1.237-1.752-1.003-2.796.071-4.174 4.297-8.416 8.528-12.683 12.735-1.916 1.889-4.196 2.229-6.418 1.15-2.362-1.145-3.865-3.556-3.749-5.979.08-1.639.886-2.891 2.011-4.014 5.441-5.433 10.867-10.88 16.295-16.322.359-.362.694-.746 1.217-1.305z"/><path d="M47.55 48.329c-13.205-.045-24.033-10.992-23.956-24.218C23.67 10.739 34.505-.037 47.84 0c13.362.036 24.087 10.967 24.02 24.478-.068 13.199-10.971 23.897-24.31 23.851zm12.001-24.186c-.023-6.567-5.253-11.795-11.807-11.801-6.609-.007-11.886 5.316-11.835 11.943.049 6.542 5.324 11.733 11.896 11.709 6.552-.023 11.768-5.285 11.746-11.851z"/></symbol><symbol viewBox="51 -52.2 477.2 477.2" id="owl-next"><path d="M167.6 401.9c-5.3 5.3-5.3 13.8 0 19.1 2.6 2.7 6.1 4 9.5 4s6.9-1.4 9.5-4l225.1-225c5.3-5.3 5.3-13.8 0-19.1L186.6-48.2c-5.3-5.3-13.8-5.3-19.1 0s-5.3 13.8 0 19.1L383 186.4 167.6 401.9z"/></symbol><symbol viewBox="0 0 477.175 477.175" id="owl-prev"><path d="M145.188 238.575l215.5-215.5c5.3-5.3 5.3-13.8 0-19.1s-13.8-5.3-19.1 0l-225.1 225.1c-5.3 5.3-5.3 13.8 0 19.1l225.1 225c2.6 2.6 6.1 4 9.5 4s6.9-1.3 9.5-4c5.3-5.3 5.3-13.8 0-19.1l-215.4-215.5z"/></symbol><symbol viewBox="0 0 40 40" id="pass-hide"><g fill="#0D0F0F"><path d="M37.2 4.6c0-.4-.2-.8-.4-1.1-.6-.6-1.5-.6-2 0l-5.6 5.6c-2.9-1.5-6-2.4-9.3-2.4C6.8 6.7.2 19.7.1 19.8c0 .3-.1.5-.1.7v.1c0 .2.1.5.2.7.1.2 2.7 5.3 7.8 9.1l-4 4c-.3.3-.4.7-.4 1.1s.2.8.4 1.1c.3.3.7.4 1.1.4.4 0 .8-.2 1.1-.4L36.9 5.7c.2-.3.3-.7.3-1.1zM15.8 20.7c0-2.3 1.9-4.2 4.2-4.2.6 0 1.1.1 1.6.4L16 22.5c-.2-.6-.2-1.2-.2-1.8zm4.2-7c-3.9 0-7.1 3.2-7.1 7.1 0 1.3.4 2.7 1.1 3.8l-4 3.9c-3.8-2.7-6.1-6.3-7-7.7 1.3-2.3 7-11 16.8-11 2.5 0 4.9.6 7.2 1.6l-3.3 3.3c-1.1-.6-2.4-1-3.7-1zM39.7 20c-.1-.2-2.1-4.2-6.2-7.8-.6-.5-1.5-.5-2 .1-.3.3-.4.7-.4 1.1 0 .4.2.8.5 1 2.8 2.4 4.6 5.2 5.3 6.4-1.3 2.3-7 11-16.8 11-1.9 0-3.8-.3-5.5-1-.4-.1-.8-.1-1.1.1-.4.2-.6.5-.8.9-.1.4-.1.8.1 1.1.2.4.5.6.9.8 2.1.8 4.3 1.1 6.5 1.1 13 0 19.5-12.6 19.8-13.1.1-.2.1-.4.1-.7v-.1c-.3-.5-.3-.7-.4-.9z"/><path d="M24.2 20.7c0 2.3-1.9 4.2-4.2 4.2h-.5c-.8-.1-1.4.5-1.5 1.2-.1.8.5 1.5 1.2 1.5h.8c3.9 0 7.1-3.2 7.1-7.1 0-.8-.7-1.4-1.4-1.4s-1.5.9-1.5 1.6z"/></g></symbol><symbol viewBox="0 0 40 40" id="pass-view"><path d="M20.2 34.6C7.6 34.6.4 21.8.1 21.2c-.2-.4-.2-1 0-1.4.3-.5 7-13 20.2-13s19.3 12.5 19.5 13c.2.4.2.9 0 1.3-.3.6-6.8 13.5-19.6 13.5zm-17-14.1c1.6 2.5 7.7 11.1 17 11.1 9.4 0 15.1-8.6 16.5-11.1C35.4 18.1 30 9.8 20.3 9.8 10.7 9.8 4.8 18 3.2 20.5z"/><path d="M20 27.8c-3.9 0-7.1-3.2-7.1-7.1 0-3.9 3.2-7.1 7.1-7.1.8 0 1.5.7 1.5 1.5s-.7 1.5-1.5 1.5c-2.3 0-4.1 1.9-4.1 4.1 0 2.3 1.9 4.1 4.1 4.1s4.1-1.9 4.1-4.1c0-1-.3-1.9-1-2.7-.5-.6-.4-1.6.2-2.1.6-.5 1.6-.4 2.1.2 1.1 1.3 1.7 2.9 1.7 4.6 0 3.9-3.2 7.1-7.1 7.1z"/></symbol><symbol viewBox="0 0 459.325 459.325" id="plus"><path d="M459.319 229.668c0 22.201-17.992 40.193-40.205 40.193H269.85v149.271c0 22.207-17.998 40.199-40.196 40.193-11.101 0-21.149-4.492-28.416-11.763-7.276-7.281-11.774-17.324-11.769-28.419l-.006-149.288H40.181c-11.094 0-21.134-4.492-28.416-11.774C4.501 250.817.006 240.769.006 229.668 0 207.471 17.992 189.475 40.202 189.475h149.267V40.202C189.469 17.998 207.471 0 229.671 0c22.192.006 40.178 17.986 40.19 40.187v149.288h149.282c22.196.012 40.165 17.996 40.176 40.193z"/></symbol><symbol viewBox="0 0 500 500" id="ruble"><path d="M382.3 43.6C355.4 16.7 318.2 0 277.4 0H128.9v355.8H74.1v48.4h54.8V500h48.4v-95.8h170v-48.4h-170v-53h100.1c40.9 0 78-16.7 104.9-43.6s43.6-64 43.6-104.9v-5.8c0-40.9-16.7-78-43.6-104.9zm-4.8 110.7c0 27.5-11.3 52.5-29.4 70.7-18.2 18.2-43.2 29.4-70.7 29.4H177.3v-206h100.1c27.5 0 52.5 11.3 70.7 29.4 18.2 18.2 29.4 43.2 29.4 70.7v5.8z"/></symbol><symbol viewBox="114 -114.8 268.8 268.8" id="slick-left"><path d="M117.7 28.4l80 80c4.9 4.9 12.8 4.9 17.7 0 4.9-4.9 4.9-12.8 0-17.7L156.7 32h213.7c6.9 0 12.5-5.6 12.5-12.5S377.3 7 370.4 7H156.7l58.7-58.7c4.9-4.9 4.9-12.8 0-17.7-2.4-2.4-5.6-3.7-8.8-3.7s-6.4 1.2-8.8 3.7l-80 80c-5 5-5 12.9-.1 17.8z"/></symbol><symbol viewBox="0 0 268.832 268.832" id="slick-right"><path d="M265.171 125.577l-80-80c-4.881-4.881-12.797-4.881-17.678 0-4.882 4.882-4.882 12.796 0 17.678l58.661 58.661H12.5c-6.903 0-12.5 5.597-12.5 12.5 0 6.902 5.597 12.5 12.5 12.5h213.654l-58.659 58.661c-4.882 4.882-4.882 12.796 0 17.678 2.44 2.439 5.64 3.661 8.839 3.661s6.398-1.222 8.839-3.661l79.998-80c4.882-4.882 4.882-12.796 0-17.678z"/></symbol><symbol viewBox="0 0 512 512" id="soc-fb"><path d="M134.941 272.691h56.123v231.051a8.256 8.256 0 0 0 8.258 8.258h95.159a8.256 8.256 0 0 0 8.258-8.258V273.78h64.519a8.26 8.26 0 0 0 8.204-7.315l9.799-85.061a8.259 8.259 0 0 0-8.202-9.203h-74.316V118.88c0-16.073 8.654-24.224 25.726-24.224h48.59a8.258 8.258 0 0 0 8.258-8.258V8.319a8.256 8.256 0 0 0-8.258-8.258h-66.965A65.863 65.863 0 0 0 307.027 0c-11.619 0-52.006 2.281-83.909 31.63-35.348 32.524-30.434 71.465-29.26 78.217v62.352H134.94a8.256 8.256 0 0 0-8.258 8.258v83.975a8.26 8.26 0 0 0 8.259 8.259z"/></symbol><symbol viewBox="0 0 512 512" id="soc-google"><path d="M113.47 309.408L95.648 375.94l-65.139 1.378C11.042 341.211 0 299.9 0 256c0-42.451 10.324-82.483 28.624-117.732h.014L86.63 148.9l25.404 57.644c-5.317 15.501-8.215 32.141-8.215 49.456.002 18.792 3.406 36.797 9.651 53.408z" fill="#fbbb00"/><path d="M507.527 208.176C510.467 223.662 512 239.655 512 256c0 18.328-1.927 36.206-5.598 53.451-12.462 58.683-45.025 109.925-90.134 146.187l-.014-.014-73.044-3.727-10.338-64.535c29.932-17.554 53.324-45.025 65.646-77.911h-136.89V208.176h245.899z" fill="#518ef8"/><path d="M416.253 455.624l.014.014C372.396 490.901 316.666 512 256 512c-97.491 0-182.252-54.491-225.491-134.681l82.961-67.91c21.619 57.698 77.278 98.771 142.53 98.771 28.047 0 54.323-7.582 76.87-20.818l83.383 68.262z" fill="#28b446"/><path d="M419.404 58.936l-82.933 67.896C313.136 112.246 285.552 103.82 256 103.82c-66.729 0-123.429 42.957-143.965 102.724l-83.397-68.276h-.014C71.23 56.123 157.06 0 256 0c62.115 0 119.068 22.126 163.404 58.936z" fill="#f14336"/></symbol><symbol viewBox="0 0 512 512" id="soc-in"><path d="M114.496 160H0v352h114.496V160zm311.872 4.128c-1.216-.384-2.368-.8-3.648-1.152a74.218 74.218 0 0 0-4.64-.896c-6.08-1.216-12.736-2.08-20.544-2.08-66.752 0-109.088 48.544-123.04 67.296V160H160v352h114.496V320s86.528-120.512 123.04-32v224H512V274.464c0-53.184-36.448-97.504-85.632-110.336zM56 112c30.928 0 56-25.072 56-56S86.928 0 56 0 0 25.072 0 56s25.072 56 56 56z"/></symbol><symbol viewBox="0 0 405.333 405.333" id="soc-tel"><path d="M373.333 266.88c-25.003 0-49.493-3.904-72.704-11.563-11.328-3.904-24.192-.896-31.637 6.699l-46.016 34.752c-52.8-28.181-86.592-61.952-114.389-114.368l33.813-44.928c8.512-8.512 11.563-20.971 7.915-32.64-7.723-23.36-11.648-47.872-11.648-72.832 0-17.643-14.357-32-32-32H32C14.357 0 0 14.357 0 32c0 205.845 167.488 373.333 373.333 373.333 17.643 0 32-14.357 32-32V298.88c0-17.643-14.357-32-32-32z"/></symbol><symbol viewBox="0 0 480.56 480.56" id="tel"><path d="M365.354 317.9c-15.7-15.5-35.3-15.5-50.9 0-11.9 11.8-23.8 23.6-35.5 35.6-3.2 3.3-5.9 4-9.8 1.8-7.7-4.2-15.9-7.6-23.3-12.2-34.5-21.7-63.4-49.6-89-81-12.7-15.6-24-32.3-31.9-51.1-1.6-3.8-1.3-6.3 1.8-9.4 11.9-11.5 23.5-23.3 35.2-35.1 16.3-16.4 16.3-35.6-.1-52.1-9.3-9.4-18.6-18.6-27.9-28-9.6-9.6-19.1-19.3-28.8-28.8-15.7-15.3-35.3-15.3-50.9.1-12 11.8-23.5 23.9-35.7 35.5-11.3 10.7-17 23.8-18.2 39.1-1.9 24.9 4.2 48.4 12.8 71.3 17.6 47.4 44.4 89.5 76.9 128.1 43.9 52.2 96.3 93.5 157.6 123.3 27.6 13.4 56.2 23.7 87.3 25.4 21.4 1.2 40-4.2 54.9-20.9 10.2-11.4 21.7-21.8 32.5-32.7 16-16.2 16.1-35.8.2-51.8-19-19.1-38.1-38.1-57.2-57.1zm-19.1-79.7l36.9-6.3c-5.8-33.9-21.8-64.6-46.1-89-25.7-25.7-58.2-41.9-94-46.9l-5.2 37.1c27.7 3.9 52.9 16.4 72.8 36.3 18.8 18.8 31.1 42.6 35.6 68.8zm57.7-160.4c-42.6-42.6-96.5-69.5-156-77.8l-5.2 37.1c51.4 7.2 98 30.5 134.8 67.2 34.9 34.9 57.8 79 66.1 127.5l36.9-6.3c-9.7-56.2-36.2-107.2-76.6-147.7z"/></symbol><symbol viewBox="0 0 612 612" id="tw"><path d="M612 116.258a250.714 250.714 0 0 1-72.088 19.772c25.929-15.527 45.777-40.155 55.184-69.411-24.322 14.379-51.169 24.82-79.775 30.48-22.907-24.437-55.49-39.658-91.63-39.658-69.334 0-125.551 56.217-125.551 125.513 0 9.828 1.109 19.427 3.251 28.606-104.326-5.24-196.835-55.223-258.75-131.174-10.823 18.51-16.98 40.078-16.98 63.101 0 43.559 22.181 81.993 55.835 104.479a125.556 125.556 0 0 1-56.867-15.756v1.568c0 60.806 43.291 111.554 100.693 123.104-10.517 2.83-21.607 4.398-33.08 4.398-8.107 0-15.947-.803-23.634-2.333 15.985 49.907 62.336 86.199 117.253 87.194-42.947 33.654-97.099 53.655-155.916 53.655-10.134 0-20.116-.612-29.944-1.721 55.567 35.681 121.536 56.485 192.438 56.485 230.948 0 357.188-191.291 357.188-357.188l-.421-16.253c24.666-17.593 46.005-39.697 62.794-64.861z"/></symbol><symbol viewBox="0 0 304.36 304.36" id="vk"><path d="M261.945 175.576c10.096 9.857 20.752 19.131 29.807 29.982 4 4.822 7.787 9.798 10.684 15.394 4.105 7.955.387 16.709-6.746 17.184l-44.34-.02c-11.436.949-20.559-3.655-28.23-11.474-6.139-6.253-11.824-12.908-17.727-19.372-2.42-2.642-4.953-5.128-7.979-7.093-6.053-3.929-11.307-2.726-14.766 3.587-3.523 6.421-4.322 13.531-4.668 20.687-.475 10.441-3.631 13.186-14.119 13.664-22.414 1.057-43.686-2.334-63.447-13.641-17.422-9.968-30.932-24.04-42.691-39.971-22.895-31.021-40.428-65.108-56.186-100.15C-2.01 76.458.584 72.22 9.295 72.07c14.465-.281 28.928-.261 43.41-.02 5.879.086 9.771 3.458 12.041 9.012 7.826 19.243 17.402 37.551 29.422 54.521 3.201 4.518 6.465 9.036 11.113 12.216 5.142 3.521 9.057 2.354 11.476-3.374 1.535-3.632 2.207-7.544 2.553-11.434 1.146-13.383 1.297-26.743-.713-40.079-1.234-8.323-5.922-13.711-14.227-15.286-4.238-.803-3.607-2.38-1.555-4.799 3.564-4.172 6.916-6.769 13.598-6.769h50.111c7.889 1.557 9.641 5.101 10.721 13.039l.043 55.663c-.086 3.073 1.535 12.192 7.07 14.226 4.43 1.448 7.35-2.096 10.008-4.905 11.998-12.734 20.561-27.783 28.211-43.366 3.395-6.852 6.314-13.968 9.143-21.078 2.096-5.276 5.385-7.872 11.328-7.757l48.229.043c1.43 0 2.877.021 4.262.258 8.127 1.385 10.354 4.881 7.844 12.817-3.955 12.451-11.65 22.827-19.174 33.251-8.043 11.129-16.645 21.877-24.621 33.072-7.328 10.223-6.746 15.376 2.357 24.255zm0 0" fill-rule="evenodd" clip-rule="evenodd"/></symbol></svg>