<?xml version="1.0" encoding="utf-8"?>
<!-- Generator: Adobe Illustrator 19.0.0, SVG Export Plug-In . SVG Version: 6.00 Build 0)  -->
<svg version="1.1" id="Слой_1" xmlns="http://www.w3.org/2000/svg" xmlns:xlink="http://www.w3.org/1999/xlink" x="0px" y="0px"
	 viewBox="0 0 500 500" enable-background="new 0 0 500 500" xml:space="preserve">
<path id="XMLID_1_" fill="#6AB942" d="M500.8,250.9c0,138.1-111.9,250-250,250l0,0c-0.3,0-0.9,0-0.9,0H0.8V251.1c0,0,0-0.1,0-0.2
	l0,0c0-138.1,111.9-250,250-250S500.8,112.8,500.8,250.9z"/>
<path fill="#FFFFFF" d="M311.5,199.1l-50.6-22.2c-3.4-1.5-3.4-6.3,0-7.8l50.6-22.2c2.8-1.2,6,0.8,6,3.9v44.5
	C317.5,198.3,314.3,200.4,311.5,199.1z M184.7,150.5v45.1c0,2.9,3,4.8,5.6,3.7l51.2-22.5c3.3-1.5,3.3-6.1,0-7.6l-51.1-22.4
	C187.8,145.6,184.7,147.6,184.7,150.5z M343,275.8c0-12.9-7.3-24.1-18-29.6c-11.7-29.3-40.4-50-73.9-50c-33.4,0-61.9,20.5-73.7,49.6
	c-11.1,5.4-18.7,16.8-18.7,30s7.6,24.5,18.7,30c11.8,29.1,40.4,49.6,73.7,49.6c33.5,0,62.1-20.7,73.9-50
	C335.7,299.8,343,288.7,343,275.8z"/>
</svg>
