<?xml version="1.0" encoding="utf-8"?>
<!-- Generator: Adobe Illustrator 19.0.0, SVG Export Plug-In . SVG Version: 6.00 Build 0)  -->
<svg version="1.1" id="Слой_1" xmlns="http://www.w3.org/2000/svg" xmlns:xlink="http://www.w3.org/1999/xlink" x="0px" y="0px"
	 viewBox="225 170.9 500 500" enable-background="new 225 170.9 500 500" xml:space="preserve">
<path id="XMLID_1_" fill="#6AB942" d="M724.8,420.9c0,138.1-111.9,250-250,250l0,0c-0.3,0-0.9,0-0.9,0H224.8V421.1c0,0,0-0.1,0-0.2
	l0,0c0-138.1,111.9-250,250-250S724.8,282.8,724.8,420.9z"/>
<path fill="#FFFFFF" d="M414.2,482.6l50.6,22.2c3.4,1.5,3.4,6.3,0,7.8l-50.6,22.2c-2.8,1.2-6-0.8-6-3.9v-44.5
	C408.2,483.5,411.3,481.4,414.2,482.6z M540.9,531.3v-45.1c0-2.9-3-4.8-5.6-3.7L484.1,505c-3.3,1.5-3.3,6.1,0,7.6l51.1,22.4
	C537.9,536.2,540.9,534.2,540.9,531.3z M382.7,406c0,12.9,7.3,24.1,18,29.6c11.7,29.3,40.4,50,73.9,50c33.4,0,61.9-20.5,73.7-49.6
	c11.1-5.4,18.7-16.8,18.7-30s-7.6-24.5-18.7-30c-11.8-29.1-40.4-49.6-73.7-49.6c-33.5,0-62.1,20.7-73.9,50
	C390,381.9,382.7,393.1,382.7,406z"/>
</svg>
