<?xml version="1.0" encoding="utf-8"?>
<!-- Generator: Adobe Illustrator 19.0.0, SVG Export Plug-In . SVG Version: 6.00 Build 0)  -->
<svg version="1.1" id="Слой_1" xmlns="http://www.w3.org/2000/svg" xmlns:xlink="http://www.w3.org/1999/xlink" x="0px" y="0px"
	 viewBox="230 -230 500 500" enable-background="new 230 -230 500 500" xml:space="preserve">
<path fill="#6AB942" d="M646.2-53.4c-51.7,0-93.6-41.9-93.6-93.6c0-24.4,9.4-46.7,24.7-63.4C547.4-223,514.5-230,480-230
	c-138.1,0-250,111.9-250,250c0,0.1,0,0.2,0,0.2V270h249.1c0,0,0.6,0,0.9,0c138.1,0,250-111.9,250-250c0-34.9-7.2-68.2-20.1-98.4
	C693.2-62.9,670.8-53.4,646.2-53.4z"/>
<path fill="#FFFFFF" d="M419.4,81.7l50.6,22.2c3.4,1.5,3.4,6.3,0,7.8l-50.6,22.2c-2.8,1.2-6-0.8-6-3.9V85.5
	C413.4,82.6,416.5,80.5,419.4,81.7z M546.1,130.4V85.3c0-2.9-3-4.8-5.6-3.7l-51.2,22.5c-3.3,1.5-3.3,6.1,0,7.6l51.1,22.4
	C543.1,135.3,546.1,133.3,546.1,130.4z M387.9,5.1c0,12.9,7.3,24.1,18,29.6c11.7,29.3,40.4,50,73.9,50c33.4,0,61.9-20.5,73.7-49.6
	c11.1-5.4,18.7-16.8,18.7-30s-7.6-24.5-18.7-30c-11.8-29.1-40.4-49.6-73.7-49.6c-33.5,0-62.1,20.7-73.9,50
	C395.2-19,387.9-7.8,387.9,5.1z"/>
<g>
	<g id="mood">
		<path fill="#408F40" d="M646.2-230c-45.6,0-83,37.4-83,83s37.4,83,83,83c45.7,0,83-37.3,83-83S691.9-230,646.2-230z M675.3-180.2
			c6.6,0,12.5,5.8,12.5,12.4s-5.8,12.4-12.5,12.4c-6.6,0-12.4-5.8-12.4-12.4S668.6-180.2,675.3-180.2z M617.2-180.2
			c6.6,0,12.5,5.8,12.5,12.4s-5.8,12.4-12.5,12.4s-12.5-5.8-12.5-12.4S610.5-180.2,617.2-180.2z M646.2-97.2
			c-21.6,0-39.8-14.1-46.5-33.2h93C686-111.3,667.8-97.2,646.2-97.2z"/>
	</g>
</g>
</svg>
