<?xml version="1.0" encoding="utf-8"?>
<!-- Generator: Adobe Illustrator 19.0.0, SVG Export Plug-In . SVG Version: 6.00 Build 0)  -->
<svg version="1.1" id="Слой_1" xmlns="http://www.w3.org/2000/svg" xmlns:xlink="http://www.w3.org/1999/xlink" x="0px" y="0px"
	 viewBox="0 0 500 500" enable-background="new 0 0 500 500" xml:space="preserve">
<path fill="#6AB942" d="M417,177.5c-51.7,0-93.6-41.9-93.6-93.6c0-24.4,9.4-46.7,24.7-63.4C318.2,7.9,285.3,0.9,250.8,0.9
	c-138.1,0-250,111.9-250,250c0,0.1,0,0.2,0,0.2v249.8h249.1c0,0,0.6,0,0.9,0c138.1,0,250-111.9,250-250c0-34.9-7.2-68.2-20.1-98.4
	C464,168,441.6,177.5,417,177.5z"/>
<path fill="#FFFFFF" d="M311.5,199.1l-50.6-22.2c-3.4-1.5-3.4-6.3,0-7.8l50.6-22.2c2.8-1.2,6,0.8,6,3.9v44.5
	C317.5,198.3,314.3,200.4,311.5,199.1z M184.7,150.5v45.1c0,2.9,3,4.8,5.6,3.7l51.2-22.5c3.3-1.5,3.3-6.1,0-7.6l-51.1-22.4
	C187.8,145.6,184.7,147.6,184.7,150.5z M343,275.8c0-12.9-7.3-24.1-18-29.6c-11.7-29.3-40.4-50-73.9-50c-33.4,0-61.9,20.5-73.7,49.6
	c-11.1,5.4-18.7,16.8-18.7,30s7.6,24.5,18.7,30c11.8,29.1,40.4,49.6,73.7,49.6c33.5,0,62.1-20.7,73.9-50
	C335.7,299.8,343,288.7,343,275.8z"/>
<g>
	<g id="mood">
		<path fill="#408F40" d="M417,0.9c-45.6,0-83,37.3-83,83s37.4,83,83,83s83-37.4,83-83S462.6,0.9,417,0.9z M446,50.7
			c6.6,0,12.5,5.8,12.5,12.5s-5.8,12.4-12.5,12.4c-6.6,0-12.4-5.8-12.4-12.4S439.4,50.7,446,50.7z M388,50.7
			c6.6,0,12.4,5.8,12.4,12.5s-5.8,12.4-12.4,12.4c-6.6,0-12.5-5.8-12.5-12.4S381.3,50.7,388,50.7z M417,133.7
			c-21.6,0-39.8-14.1-46.5-33.2h93C456.8,119.6,438.6,133.7,417,133.7z"/>
	</g>
</g>
</svg>
