<svg width="489" height="361" viewBox="0 0 489 361" version="1.1" xmlns="http://www.w3.org/2000/svg" xmlns:xlink="http://www.w3.org/1999/xlink">
<path id="path0_fill" d="M 59.6004 191.043C 95.0004 147.903 161.7 96.555 279.3 92.1509L 279.3 12.2769C 279.3 7.5725 282 3.16842 286.3 1.16657C 290.6 -0.835288 295.7 -0.234733 299.3 2.76805L 484.5 155.61C 487.3 157.912 489 161.415 489 165.018C 489 168.722 487.4 172.125 484.6 174.427L 299.4 327.869C 295.7 330.872 290.7 331.573 286.4 329.471C 282.1 327.469 279.4 323.165 279.4 318.36L 279.4 238.787C 202.6 239.087 85.2004 244.792 22.9004 354.794C 20.7004 358.698 16.6005 361 12.2005 361C 11.2005 361 10.1005 360.9 9.10048 360.6C 3.70049 359.198 0.000474287 354.294 0.000474287 348.789C -0.0995256 307.651 15.6005 244.692 59.6004 191.043ZM 291.6 214.264C 294.9 214.264 298 215.565 300.3 217.867C 302.6 220.17 303.9 223.272 303.9 226.575L 303.9 292.336L 457.4 165.118L 303.8 38.301L 303.8 104.062C 303.8 110.768 298.4 116.273 291.7 116.373C 115.7 118.075 50.1004 225.474 31.0004 300.944C 106.8 214.364 220.3 214.264 291.6 214.264Z"/>
</svg>