<?xml version="1.0" encoding="utf-8"?>
<!-- Generator: Adobe Illustrator 19.0.0, SVG Export Plug-In . SVG Version: 6.00 Build 0)  -->
<svg version="1.1" id="Слой_1" xmlns="http://www.w3.org/2000/svg" xmlns:xlink="http://www.w3.org/1999/xlink" x="0px" y="0px"
	 viewBox="0 0 53 28.9" style="enable-background:new 0 0 53 28.9;" xml:space="preserve">
<path id="XMLID_15_" d="M26.5,0C13.7,0,0,3.8,0,10.9c0,6.7,12.2,10.5,24.3,10.9l-4.5,4.5c-0.6,0.6-0.6,1.5,0,2.1
	c0.3,0.3,0.7,0.4,1.1,0.4s0.8-0.1,1.1-0.4l7.1-7.1c0.6-0.6,0.6-1.5,0-2.1l-7.1-7.1c-0.6-0.6-1.5-0.6-2.1,0c-0.6,0.6-0.6,1.5,0,2.1
	l4.5,4.5C11.9,18.3,3,14.4,3,10.9C3,7.2,13,3,26.5,3S50,7.2,50,10.9c0,1.9-2.8,4.1-7.3,5.6c-0.8,0.3-1.2,1.1-0.9,1.9
	s1.1,1.2,1.9,0.9c6-2,9.4-5,9.4-8.4C53,3.8,39.3,0,26.5,0z"/>
</svg>
