<?xml version="1.0" encoding="iso-8859-1"?>
<!-- Generator: Adobe Illustrator 19.0.0, SVG Export Plug-In . SVG Version: 6.00 Build 0)  -->
<svg version="1.1" id="Capa_1" xmlns="http://www.w3.org/2000/svg" xmlns:xlink="http://www.w3.org/1999/xlink" x="0px" y="0px"
	 viewBox="0 0 512 512" style="enable-background:new 0 0 512 512;" xml:space="preserve">
<g>
	<g>
		<path d="M326,106.143H186c-8.284,0-15,6.716-15,15s6.716,15,15,15h140c8.284,0,15-6.716,15-15S334.284,106.143,326,106.143z"/>
	</g>
</g>
<g>
	<g>
		<path d="M406,206.286H106c-8.284,0-15,6.716-15,15s6.716,15,15,15h300c8.284,0,15-6.716,15-15S414.284,206.286,406,206.286z"/>
	</g>
</g>
<g>
	<g>
		<path d="M406,276.386H106c-8.284,0-15,6.716-15,15s6.716,15,15,15h300c8.284,0,15-6.716,15-15S414.284,276.386,406,276.386z"/>
	</g>
</g>
<g>
	<g>
		<path d="M238.415,435.06C379.514,442.576,512,351.353,512,220.284C512,95.128,390.037,5,256,5C121.166,5,0,95.769,0,220.284
			c0,123.038,122.837,235.238,238.682,285.478c6.536,2.834,14.214,0.685,18.304-5.229c4.072-5.887,3.417-13.831-1.565-18.972
			c-29.686-30.633-31.09-42.511-31.063-44.626c0.519-0.343,1.678-0.927,3.696-1.448C231.09,434.702,232.457,434.742,238.415,435.06z
			 M220.545,406.442c-7.592,1.963-20.943,7.437-25.048,22.042c-1.904,6.771-1.506,14.137,1.334,22.372
			C116.635,403.348,30,312.378,30,220.284C30,118.118,131.383,35,256,35s226,83.118,226,185.284
			c0,100.097-101.997,192.318-241.985,184.818C233.139,404.738,228.172,404.469,220.545,406.442z"/>
	</g>
</g>
<g>
</g>
<g>
</g>
<g>
</g>
<g>
</g>
<g>
</g>
<g>
</g>
<g>
</g>
<g>
</g>
<g>
</g>
<g>
</g>
<g>
</g>
<g>
</g>
<g>
</g>
<g>
</g>
<g>
</g>
</svg>
