<?xml version="1.0" encoding="iso-8859-1"?>
<!-- Generator: Adobe Illustrator 17.1.0, SVG Export Plug-In . SVG Version: 6.00 Build 0)  -->
<!DOCTYPE svg PUBLIC "-//W3C//DTD SVG 1.1//EN" "http://www.w3.org/Graphics/SVG/1.1/DTD/svg11.dtd">
<svg version="1.1" id="Capa_1" xmlns="http://www.w3.org/2000/svg" xmlns:xlink="http://www.w3.org/1999/xlink" x="0px" y="0px"
	 viewBox="0 0 216.952 216.952" style="enable-background:new 0 0 216.952 216.952;" xml:space="preserve">
<path d="M211.952,46.01h-18.44V33.565c0-8.662-7.048-15.71-15.711-15.71c-8.662,0-15.71,7.048-15.71,15.71V46.01H54.86V33.565
	c0-8.662-7.048-15.71-15.71-15.71s-15.71,7.048-15.71,15.71V46.01H5c-2.762,0-5,2.238-5,5v129.223
	c0,10.401,8.462,18.864,18.863,18.864h179.225c10.401,0,18.864-8.463,18.864-18.864V51.01
	C216.952,48.248,214.714,46.01,211.952,46.01z M172.091,33.565c0-3.148,2.562-5.71,5.71-5.71c3.149,0,5.711,2.562,5.711,5.71v21.359
	c0,3.148-2.562,5.71-5.711,5.71c-3.148,0-5.71-2.562-5.71-5.71V33.565z M33.44,33.565c0-3.148,2.562-5.71,5.71-5.71
	s5.71,2.562,5.71,5.71v21.359c0,3.148-2.562,5.71-5.71,5.71s-5.71-2.562-5.71-5.71V33.565z M50.02,178.237H22.797v-15.215H50.02
	V178.237z M50.02,152.423H22.797v-15.216H50.02V152.423z M50.02,126.607H22.797v-15.216H50.02V126.607z M87.241,178.237H60.02
	v-15.215h27.222V178.237z M87.241,152.423H60.02v-15.216h27.222V152.423z M87.241,126.607H60.02v-15.216h27.222V126.607z
	 M87.241,100.792H60.02V85.577h27.222V100.792z M124.464,152.423H97.241v-15.216h27.223V152.423z M124.464,126.607H97.241v-15.216
	h27.223V126.607z M124.464,100.792H97.241V85.577h27.223V100.792z M161.686,152.423h-27.222v-15.216h27.222V152.423z
	 M161.686,126.607h-27.222v-15.216h27.222V126.607z M161.686,100.792h-27.222V85.577h27.222V100.792z M198.907,152.423h-27.222
	v-15.216h27.222V152.423z M198.907,126.607h-27.222v-15.216h27.222V126.607z M198.907,100.792h-27.222V85.577h27.222V100.792z"/>
<g>
</g>
<g>
</g>
<g>
</g>
<g>
</g>
<g>
</g>
<g>
</g>
<g>
</g>
<g>
</g>
<g>
</g>
<g>
</g>
<g>
</g>
<g>
</g>
<g>
</g>
<g>
</g>
<g>
</g>
</svg>
