<?xml version="1.0" encoding="iso-8859-1"?>
<!-- Generator: Adobe Illustrator 19.0.0, SVG Export Plug-In . SVG Version: 6.00 Build 0)  -->
<svg version="1.1" id="Capa_1" xmlns="http://www.w3.org/2000/svg" xmlns:xlink="http://www.w3.org/1999/xlink" x="0px" y="0px"
	 viewBox="0 0 512.001 512.001" style="enable-background:new 0 0 512.001 512.001;" xml:space="preserve">
<g>
	<g>
		<path d="M432.158,432.334c37.792-42.847,58.451-97.303,58.451-154.941c0-29.269-5.327-57.718-15.516-84.244
			c1.573-0.733,3.029-1.725,4.28-2.976c43.434-43.436,43.434-114.109,0-157.545C458.333,11.588,430.357,0,400.602,0
			c-29.756,0-57.73,11.588-78.772,32.628c-2.814,2.813-4.393,6.628-4.393,10.607c0,2.992,0.895,5.891,2.534,8.341
			c-20.555-5.789-42.03-8.791-63.97-8.791s-43.418,3.003-63.974,8.792c3.912-5.83,3.297-13.796-1.857-18.948
			C169.131,11.588,141.156,0,111.4,0S53.67,11.588,32.629,32.628c-43.434,43.436-43.434,114.109,0,157.545
			c1.25,1.251,2.706,2.241,4.279,2.975c-10.189,26.526-15.517,54.975-15.517,84.245c0,57.639,20.66,112.095,58.453,154.942
			l-54.06,54.059c-5.858,5.857-5.858,15.354,0,21.213c2.929,2.93,6.768,4.394,10.606,4.394s7.678-1.465,10.607-4.394l54.06-54.059
			C143.907,491.34,198.363,512,256.001,512c57.64,0,112.097-20.66,154.944-58.452l54.058,54.059
			c2.929,2.93,6.768,4.394,10.606,4.394s7.678-1.465,10.607-4.394c5.858-5.857,5.858-15.355,0-21.213L432.158,432.334z M400.602,30
			c21.743,0,42.185,8.467,57.56,23.841c28.115,28.116,31.324,71.852,9.627,103.532L354.619,44.204
			C368.055,34.969,383.946,30,400.602,30z M53.843,53.841C69.217,38.467,89.658,30,111.4,30c16.654,0,32.547,4.969,45.981,14.204
			L44.216,157.373C22.519,125.691,25.728,81.957,53.843,53.841z M256.001,482c-112.821,0-204.608-91.786-204.608-204.607
			S143.18,72.785,256.001,72.785s204.608,91.787,204.608,204.608S368.822,482,256.001,482z"/>
	</g>
</g>
<g>
	<g>
		<path d="M352.4,262.393h-81.399v-81.4c0-8.284-6.716-15-15-15c-8.284,0-15,6.716-15,15v96.4c0,8.284,6.716,15,15,15H352.4
			c8.284,0,15-6.716,15-15C367.4,269.108,360.685,262.393,352.4,262.393z"/>
	</g>
</g>
<g>
</g>
<g>
</g>
<g>
</g>
<g>
</g>
<g>
</g>
<g>
</g>
<g>
</g>
<g>
</g>
<g>
</g>
<g>
</g>
<g>
</g>
<g>
</g>
<g>
</g>
<g>
</g>
<g>
</g>
</svg>
