<?xml version="1.0" encoding="iso-8859-1"?>
<!-- Generator: Adobe Illustrator 19.0.0, SVG Export Plug-In . SVG Version: 6.00 Build 0)  -->
<svg version="1.1" id="Capa_1" xmlns="http://www.w3.org/2000/svg" xmlns:xlink="http://www.w3.org/1999/xlink" x="0px" y="0px"
	 viewBox="0 0 511.999 511.999" style="enable-background:new 0 0 511.999 511.999;" xml:space="preserve">
<g>
	<g>
		<path d="M255.999,435.567c134.833,0,256-90.77,256-215.284C512,95.128,390.037,5,256,5C121.166,5,0,95.769,0,220.284
			c0,53.457,25.401,105.168,57.555,147.647c46.958,62.037,111.146,107.481,181.127,137.83c6.536,2.834,14.214,0.685,18.304-5.229
			c4.072-5.887,3.417-13.831-1.565-18.972c-29.686-30.633-31.09-42.511-31.063-44.626c0.519-0.343,1.678-0.927,3.696-1.448
			C233.722,434.02,236.75,435.567,255.999,435.567z M186,106.143h140c8.284,0,15,6.716,15,15s-6.716,15-15,15H186
			c-8.284,0-15-6.716-15-15S177.716,106.143,186,106.143z M106,206.286h300c8.284,0,15,6.716,15,15s-6.716,15-15,15H106
			c-8.284,0-15-6.716-15-15S97.716,206.286,106,206.286z M106,306.386c-8.284,0-15-6.716-15-15s6.716-15,15-15h300
			c8.284,0,15,6.716,15,15s-6.716,15-15,15H106z"/>
	</g>
</g>
<g>
</g>
<g>
</g>
<g>
</g>
<g>
</g>
<g>
</g>
<g>
</g>
<g>
</g>
<g>
</g>
<g>
</g>
<g>
</g>
<g>
</g>
<g>
</g>
<g>
</g>
<g>
</g>
<g>
</g>
</svg>
