<svg width="20" height="20" viewBox="0 0 20 20" version="1.1" xmlns="http://www.w3.org/2000/svg" xmlns:xlink="http://www.w3.org/1999/xlink">
<path d="M 11.7688 9.99979L 19.6335 2.13504C 20.1222 1.64683 20.1222 0.854683 19.6335 0.366471C 19.1449 -0.122157 18.3536 -0.122157 17.865 0.366471L 10.0002 8.23122L 2.13504 0.366471C 1.64641 -0.122157 0.8551 -0.122157 0.366471 0.366471C -0.122157 0.854683 -0.122157 1.64683 0.366471 2.13504L 8.23164 9.99979L 0.366471 17.8645C -0.122157 18.3528 -0.122157 19.1449 0.366471 19.6331C 0.610786 19.877 0.930979 19.9992 1.25076 19.9992C 1.57053 19.9992 1.89073 19.877 2.13504 19.6327L 10.0002 11.7679L 17.865 19.6327C 18.1093 19.877 18.4295 19.9992 18.7492 19.9992C 19.069 19.9992 19.3892 19.877 19.6335 19.6327C 20.1222 19.1445 20.1222 18.3523 19.6335 17.8641L 11.7688 9.99979Z"/>
</svg>