<?xml version="1.0" encoding="utf-8"?>
<!-- Generator: Adobe Illustrator 19.0.0, SVG Export Plug-In . SVG Version: 6.00 Build 0)  -->
<svg version="1.1" id="Capa_1" xmlns="http://www.w3.org/2000/svg" xmlns:xlink="http://www.w3.org/1999/xlink" x="0px" y="0px"
	 viewBox="-262.5 24.5 512 512" style="enable-background:new -262.5 24.5 512 512;" xml:space="preserve">
<g>
	<path d="M172.1,103.8C124.9,56.5,62.1,30.5-4.6,30.5c-66.7,0-129.5,26-176.7,73.3c-44.1,44.1-70,102.8-72.8,165.3
		c-2.8,61.1,16.6,120.5,54.6,167.8c-7,13.2-18.4,29.3-34.8,37.4c-11.3,5.6-17.6,17.7-15.7,30.1c1.9,12.5,11.6,22.1,24,24.1
		c6.5,1,13.3,1.5,20.2,1.5c21.4,0,53.4-4.8,86.3-27.5c35.3,18.3,74.9,28,114.8,28c32.6,0,64.5-6.2,94.7-18.6
		c30.9-12.6,58.6-31,82.3-54.7c47.2-47.2,73.3-110,73.3-176.7C245.5,213.8,219.4,151.1,172.1,103.8z M-158.6,443l0-0.1
		c1.6-4,2-8.2,1.1-12.3c-0.5-3.9-2.2-7.7-4.8-10.7c-73.5-83.1-69.7-209.6,8.8-288.1c39.7-39.7,92.5-61.5,148.8-61.5
		c56.3,0,109.1,21.9,148.7,61.5c39.7,39.7,61.6,92.5,61.6,148.7c0,56.2-21.8,109.1-61.5,148.7h0C76.3,497-28.6,510.5-111.2,462
		c-3.1-1.9-6.6-2.8-10-2.8c-4.9,0-9.7,1.8-13.4,5.3c-0.6,0.4-1,0.7-1.4,1.1c-18.8,14.5-37.4,20.9-52.7,23.4
		C-174.2,474.2-164.6,456.5-158.6,443z"/>
	<path d="M-4.6,303.5c12.7,0,23-10.3,23-23c0-12.7-10.3-23-23-23s-23,10.3-23,23C-27.6,293.2-17.3,303.5-4.6,303.5z"/>
	<path d="M83.7,303.5c12.7,0,23-10.3,23-23c0-12.7-10.3-23-23-23s-23,10.3-23,23C60.7,293.2,71.1,303.5,83.7,303.5z"/>
	<path d="M-93,303.5c12.7,0,23-10.3,23-23c0-12.7-10.3-23-23-23c-12.7,0-23,10.3-23,23C-116,293.2-105.7,303.5-93,303.5z"/>
</g>
</svg>
