<?xml version="1.0" encoding="utf-8"?>
<!-- Generator: Adobe Illustrator 19.0.0, SVG Export Plug-In . SVG Version: 6.00 Build 0)  -->
<svg version="1.1" id="Capa_1" xmlns="http://www.w3.org/2000/svg" xmlns:xlink="http://www.w3.org/1999/xlink" x="0px" y="0px"
	 viewBox="-258.5 24.5 512 512" style="enable-background:new -258.5 24.5 512 512;" xml:space="preserve">
<g>
	<path d="M-3.1,30.5c-111.1,0-201.5,90.4-201.5,201.5c0,12.9,1.2,25.6,3.6,37.7c0.1,0.4,0.4,2.2,1.4,6.9c3.1,13.7,7.6,27,13.5,39.7
		c21.4,50.3,68.4,127.5,171,209.9c3.5,2.8,7.8,4.3,12.3,4.3c4.4,0,8.8-1.5,12.3-4.3c102.7-82.5,149.6-159.7,171-209.9
		c5.9-12.8,10.5-26.2,13.5-39.7c1-4.7,1.3-6.4,1.4-6.8c2.4-12.7,3.6-25.4,3.6-37.7C198.4,120.9,107.9,30.5-3.1,30.5z M159.4,231.9
		c0,10.5-1,20.9-3,31l-0.1,0.4c0,0.2-0.1,0.3-0.1,0.4c-0.1,0.6-0.4,2.1-0.9,4.1l-0.1,0.7c-2.5,10.8-6.1,21.3-10.7,31.3l-0.4,0.9
		c-18.4,43.6-58.9,111-147.3,185c-88.4-74-128.9-141.4-147.3-185l-0.3-0.7l-0.2-0.3c-4.5-9.9-8.1-20.4-10.7-31.3l-0.2-0.9
		c-0.4-1.6-0.6-2.8-0.7-3.5l0-0.2c0-0.2-0.1-0.4-0.1-0.5l-0.1-0.6c-2-10.1-3-20.5-3-30.9c0-89.6,72.9-162.5,162.5-162.5
		C86.5,69.4,159.4,142.3,159.4,231.9z"/>
	<path d="M-3.1,104.2c-71.7,0-130,58.3-130,130s58.3,130,130,130c71.7,0,130-58.3,130-130S68.6,104.2-3.1,104.2z M87.9,234.2
		c0,50.2-40.8,91-91,91s-91-40.8-91-91c0-50.2,40.8-91,91-91S87.9,184,87.9,234.2z"/>
</g>
</svg>
