<?xml version="1.0" encoding="utf-8"?>
<!-- Generator: Adobe Illustrator 19.0.0, SVG Export Plug-In . SVG Version: 6.00 Build 0)  -->
<svg version="1.1" id="Слой_1" xmlns="http://www.w3.org/2000/svg" xmlns:xlink="http://www.w3.org/1999/xlink" x="0px" y="0px"
	 viewBox="-223 25 512 512" style="enable-background:new -223 25 512 512;" xml:space="preserve">
<g>
	<path d="M277.4,495.5L157.2,375.3c29.8-36.3,47.8-82.9,47.8-133.6C204.9,125.4,110.5,31-5.8,31c-116.4,0-210.7,94.4-210.7,210.7
		s94.3,210.7,210.7,210.7c50.7,0,97.1-17.9,133.5-47.7l120.2,120.1c8.2,8.2,21.3,8.2,29.5,0C285.5,516.8,285.5,503.6,277.4,495.5z
		 M-5.8,410.5c-93.2,0-168.9-75.7-168.9-168.8S-98.9,72.8-5.8,72.8c93.1,0,168.9,75.8,168.9,168.9S87.3,410.5-5.8,410.5z"/>
</g>
</svg>
