<?xml version="1.0" encoding="utf-8"?>
<!-- Generator: Adobe Illustrator 19.0.0, SVG Export Plug-In . SVG Version: 6.00 Build 0)  -->
<svg version="1.1" id="Слой_1" xmlns="http://www.w3.org/2000/svg" xmlns:xlink="http://www.w3.org/1999/xlink" x="0px" y="0px"
	 viewBox="0 0 40 40" enable-background="new 0 0 40 40" xml:space="preserve">
<g id="XMLID_7_">
	<path id="XMLID_10_" fill="#0D0F0F" d="M37.2,4.6c0-0.4-0.2-0.8-0.4-1.1c-0.6-0.6-1.5-0.6-2,0l-5.6,5.6c-2.9-1.5-6-2.4-9.3-2.4
		c-13.1,0-19.7,13-19.8,13.1C0.1,20.1,0,20.3,0,20.5v0.1c0,0.2,0.1,0.5,0.2,0.7c0.1,0.2,2.7,5.3,7.8,9.1l-4,4
		c-0.3,0.3-0.4,0.7-0.4,1.1s0.2,0.8,0.4,1.1c0.3,0.3,0.7,0.4,1.1,0.4c0.4,0,0.8-0.2,1.1-0.4L36.9,5.7C37.1,5.4,37.2,5,37.2,4.6z
		 M15.8,20.7c0-2.3,1.9-4.2,4.2-4.2c0.6,0,1.1,0.1,1.6,0.4L16,22.5C15.8,21.9,15.8,21.3,15.8,20.7z M20,13.7c-3.9,0-7.1,3.2-7.1,7.1
		c0,1.3,0.4,2.7,1.1,3.8L10,28.5c-3.8-2.7-6.1-6.3-7-7.7c1.3-2.3,7-11,16.8-11c2.5,0,4.9,0.6,7.2,1.6l-3.3,3.3
		C22.6,14.1,21.3,13.7,20,13.7z"/>
	<path id="XMLID_2_" fill="#0D0F0F" d="M39.7,20c-0.1-0.2-2.1-4.2-6.2-7.8c-0.6-0.5-1.5-0.5-2,0.1c-0.3,0.3-0.4,0.7-0.4,1.1
		c0,0.4,0.2,0.8,0.5,1c2.8,2.4,4.6,5.2,5.3,6.4c-1.3,2.3-7,11-16.8,11c-1.9,0-3.8-0.3-5.5-1c-0.4-0.1-0.8-0.1-1.1,0.1
		c-0.4,0.2-0.6,0.5-0.8,0.9c-0.1,0.4-0.1,0.8,0.1,1.1c0.2,0.4,0.5,0.6,0.9,0.8c2.1,0.8,4.3,1.1,6.5,1.1c13,0,19.5-12.6,19.8-13.1
		c0.1-0.2,0.1-0.4,0.1-0.7v-0.1C39.8,20.4,39.8,20.2,39.7,20z"/>
	<path id="XMLID_1_" fill="#0D0F0F" d="M24.2,20.7c0,2.3-1.9,4.2-4.2,4.2c-0.2,0-0.3,0-0.5,0c-0.8-0.1-1.4,0.5-1.5,1.2
		c-0.1,0.8,0.5,1.5,1.2,1.5c0.3,0,0.5,0,0.8,0c3.9,0,7.1-3.2,7.1-7.1c0-0.8-0.7-1.4-1.4-1.4S24.2,20,24.2,20.7z"/>
</g>
</svg>
