<?xml version="1.0" encoding="utf-8"?>
<!-- Generator: Adobe Illustrator 19.0.0, SVG Export Plug-In . SVG Version: 6.00 Build 0)  -->
<svg version="1.1" id="Слой_1" xmlns="http://www.w3.org/2000/svg" xmlns:xlink="http://www.w3.org/1999/xlink" x="0px" y="0px"
	 viewBox="0 0 40 40" enable-background="new 0 0 40 40" xml:space="preserve">
<path id="XMLID_2_" d="M20.2,34.6C7.6,34.6,0.4,21.8,0.1,21.2c-0.2-0.4-0.2-1,0-1.4c0.3-0.5,7-13,20.2-13c13.2,0,19.3,12.5,19.5,13
	c0.2,0.4,0.2,0.9,0,1.3C39.5,21.7,33,34.6,20.2,34.6z M3.2,20.5c1.6,2.5,7.7,11.1,17,11.1c9.4,0,15.1-8.6,16.5-11.1
	C35.4,18.1,30,9.8,20.3,9.8C10.7,9.8,4.8,18,3.2,20.5z"/>
<path id="XMLID_3_" d="M20,27.8c-3.9,0-7.1-3.2-7.1-7.1c0-3.9,3.2-7.1,7.1-7.1c0.8,0,1.5,0.7,1.5,1.5s-0.7,1.5-1.5,1.5
	c-2.3,0-4.1,1.9-4.1,4.1c0,2.3,1.9,4.1,4.1,4.1s4.1-1.9,4.1-4.1c0-1-0.3-1.9-1-2.7c-0.5-0.6-0.4-1.6,0.2-2.1
	c0.6-0.5,1.6-0.4,2.1,0.2c1.1,1.3,1.7,2.9,1.7,4.6C27.1,24.6,23.9,27.8,20,27.8z"/>
</svg>
