<?xml version="1.0" encoding="utf-8"?>
<!-- Generator: Adobe Illustrator 19.0.0, SVG Export Plug-In . SVG Version: 6.00 Build 0)  -->
<svg version="1.1" id="Capa_1" xmlns="http://www.w3.org/2000/svg" xmlns:xlink="http://www.w3.org/1999/xlink" x="0px" y="0px"
	 viewBox="114 -114.8 268.8 268.8" enable-background="new 114 -114.8 268.8 268.8" xml:space="preserve">
<g>
	<path d="M117.7,28.4l80,80c4.9,4.9,12.8,4.9,17.7,0c4.9-4.9,4.9-12.8,0-17.7l-58.7-58.7h213.7c6.9,0,12.5-5.6,12.5-12.5
		c0-6.9-5.6-12.5-12.5-12.5H156.7l58.7-58.7c4.9-4.9,4.9-12.8,0-17.7c-2.4-2.4-5.6-3.7-8.8-3.7s-6.4,1.2-8.8,3.7l-80,80
		C112.8,15.6,112.8,23.5,117.7,28.4z"/>
</g>
</svg>
