<svg width="512" height="512" viewBox="0 0 512 512" version="1.1" xmlns="http://www.w3.org/2000/svg" xmlns:xlink="http://www.w3.org/1999/xlink">
<path d="M 114.496 160L 0 160L 0 512L 114.496 512L 114.496 160Z"/>
<path d="M 426.368 164.128C 425.152 163.744 424 163.328 422.72 162.976C 421.184 162.624 419.648 162.336 418.08 162.08C 412 160.864 405.344 160 397.536 160C 330.784 160 288.448 208.544 274.496 227.296L 274.496 160L 160 160L 160 512L 274.496 512L 274.496 320C 274.496 320 361.024 199.488 397.536 288C 397.536 367.008 397.536 512 397.536 512L 512 512L 512 274.464C 512 221.28 475.552 176.96 426.368 164.128Z"/>
<path d="M 56 112C 86.9279 112 112 86.9279 112 56C 112 25.0721 86.9279 0 56 0C 25.0721 0 0 25.0721 0 56C 0 86.9279 25.0721 112 56 112Z"/>
</svg>
